<svg width="192" height="46" viewBox="0 0 192 46" fill="none" xmlns="http://www.w3.org/2000/svg">
<rect x="89.5471" y="38" width="96.7458" height="5" fill="#F8BE2A"/>
<path d="M10.9375 35H3.18359V6.875H10.9375V20.2734C13.3333 18.4375 15.5664 16.3997 17.6367 14.1602C19.7201 11.9206 21.5104 9.48568 23.0078 6.85547H28.3008C26.9206 9.21224 25.3385 11.4128 23.5547 13.457C21.7708 15.5013 19.8307 17.3958 17.7344 19.1406L28.9648 35H20.8789L12.4219 23.0469C12.1745 23.2161 11.9271 23.3789 11.6797 23.5352C11.4453 23.6914 11.1979 23.8477 10.9375 24.0039V35ZM53.8086 23.6719C53.8086 24.8438 53.6523 25.944 53.3398 26.9727C53.0273 28.0013 52.5911 28.9518 52.0312 29.8242C51.4844 30.6966 50.8203 31.4844 50.0391 32.1875C49.2578 32.8776 48.3984 33.4635 47.4609 33.9453C46.5365 34.4271 45.5404 34.7982 44.4727 35.0586C43.418 35.319 42.3307 35.4492 41.2109 35.4492C40.0911 35.4492 39.0039 35.319 37.9492 35.0586C36.8945 34.7982 35.8984 34.4271 34.9609 33.9453C34.0365 33.4635 33.1836 32.8776 32.4023 32.1875C31.6211 31.4844 30.9505 30.6966 30.3906 29.8242C29.8438 28.9518 29.4141 28.0013 29.1016 26.9727C28.7891 25.931 28.6328 24.8307 28.6328 23.6719C28.6328 22.513 28.7891 21.4193 29.1016 20.3906C29.4141 19.349 29.8438 18.3919 30.3906 17.5195C30.9505 16.6471 31.6211 15.8659 32.4023 15.1758C33.1836 14.4727 34.0365 13.8802 34.9609 13.3984C35.8984 12.9167 36.8945 12.5456 37.9492 12.2852C39.0039 12.0247 40.0911 11.8945 41.2109 11.8945C42.3307 11.8945 43.418 12.0247 44.4727 12.2852C45.5404 12.5456 46.5365 12.9167 47.4609 13.3984C48.3984 13.8802 49.2578 14.4727 50.0391 15.1758C50.8203 15.8659 51.4844 16.6471 52.0312 17.5195C52.5911 18.3919 53.0273 19.349 53.3398 20.3906C53.6523 21.4193 53.8086 22.513 53.8086 23.6719ZM47.0898 23.6719C47.0898 23.0469 47.0508 22.3893 46.9727 21.6992C46.9076 20.9961 46.7904 20.3125 46.6211 19.6484C46.4518 18.9714 46.2174 18.3268 45.918 17.7148C45.6315 17.0898 45.2734 16.5495 44.8438 16.0938C44.4141 15.625 43.8997 15.2539 43.3008 14.9805C42.7018 14.694 42.0052 14.5508 41.2109 14.5508C40.4557 14.5508 39.7852 14.694 39.1992 14.9805C38.6133 15.2669 38.099 15.651 37.6562 16.1328C37.2266 16.6016 36.862 17.1484 36.5625 17.7734C36.276 18.3984 36.0417 19.0495 35.8594 19.7266C35.6771 20.3906 35.5469 21.0677 35.4688 21.7578C35.3906 22.4349 35.3516 23.0729 35.3516 23.6719C35.3516 24.2708 35.3906 24.9154 35.4688 25.6055C35.5469 26.2826 35.6771 26.9596 35.8594 27.6367C36.0417 28.3138 36.276 28.9648 36.5625 29.5898C36.862 30.2018 37.2266 30.7487 37.6562 31.2305C38.099 31.6992 38.6133 32.0768 39.1992 32.3633C39.7852 32.6497 40.4557 32.793 41.2109 32.793C41.9922 32.793 42.6823 32.6562 43.2812 32.3828C43.8802 32.0964 44.3945 31.7188 44.8242 31.25C45.2669 30.7812 45.6315 30.2409 45.918 29.6289C46.2044 29.0169 46.4323 28.3724 46.6016 27.6953C46.7839 27.0182 46.9076 26.3346 46.9727 25.6445C47.0508 24.9544 47.0898 24.2969 47.0898 23.6719ZM78.3398 2.57812C77.7799 2.77344 77.3177 3.04036 76.9531 3.37891C76.6016 3.71745 76.3216 4.08854 76.1133 4.49219C75.9049 4.89583 75.7552 5.31901 75.6641 5.76172C75.5729 6.19141 75.5143 6.60156 75.4883 6.99219C75.4622 7.38281 75.4557 7.73438 75.4688 8.04688C75.4948 8.35938 75.5143 8.59375 75.5273 8.75C75.5013 8.41146 75.4492 8.04036 75.3711 7.63672C75.293 7.23307 75.1758 6.82292 75.0195 6.40625C74.8633 5.98958 74.668 5.58594 74.4336 5.19531C74.1992 4.80469 73.9062 4.45964 73.5547 4.16016C73.2161 3.86068 72.8125 3.61979 72.3438 3.4375C71.888 3.25521 71.3607 3.16406 70.7617 3.16406C69.8372 3.16406 69.0951 3.37891 68.5352 3.80859C67.9753 4.23828 67.5456 4.85677 67.2461 5.66406C66.9466 6.45833 66.7448 7.42839 66.6406 8.57422C66.5365 9.70703 66.4844 10.9896 66.4844 12.4219H73.3203V15.0391H66.4844V35H59.8633V15.0391H55.7617V12.4219H59.8633C59.8633 8.28125 60.7552 5.1888 62.5391 3.14453C64.3229 1.08724 67.0443 0.0585938 70.7031 0.0585938C71.7969 0.0585938 72.7604 0.16276 73.5938 0.371094C74.4401 0.566406 75.1693 0.807292 75.7812 1.09375C76.4062 1.36719 76.9271 1.64714 77.3438 1.93359C77.7604 2.20703 78.0924 2.42188 78.3398 2.57812ZM84.3164 6.99219C84.3164 7.48698 84.2188 7.95573 84.0234 8.39844C83.8411 8.84115 83.5872 9.22526 83.2617 9.55078C82.9362 9.8763 82.5521 10.1367 82.1094 10.332C81.6667 10.5143 81.1979 10.6055 80.7031 10.6055C80.2083 10.6055 79.7396 10.5143 79.2969 10.332C78.8672 10.1367 78.4896 9.8763 78.1641 9.55078C77.8385 9.22526 77.5781 8.84115 77.3828 8.39844C77.2005 7.95573 77.1094 7.48698 77.1094 6.99219C77.1094 6.4974 77.2005 6.03516 77.3828 5.60547C77.5781 5.16276 77.8385 4.77865 78.1641 4.45312C78.4896 4.1276 78.8672 3.8737 79.2969 3.69141C79.7396 3.49609 80.2083 3.39844 80.7031 3.39844C81.1979 3.39844 81.6667 3.49609 82.1094 3.69141C82.5521 3.8737 82.9362 4.1276 83.2617 4.45312C83.5872 4.77865 83.8411 5.16276 84.0234 5.60547C84.2188 6.03516 84.3164 6.4974 84.3164 6.99219ZM84.0234 35H77.4023V12.4609H84.0234V35ZM115.527 13.8477L112.188 15.2539C111.927 14.4076 111.576 13.6328 111.133 12.9297C110.703 12.2266 110.182 11.6276 109.57 11.1328C108.971 10.625 108.288 10.2344 107.52 9.96094C106.751 9.67448 105.911 9.53125 105 9.53125C104.023 9.53125 103.125 9.69401 102.305 10.0195C101.497 10.332 100.768 10.7682 100.117 11.3281C99.4792 11.888 98.9193 12.5391 98.4375 13.2812C97.9557 14.0234 97.5521 14.8177 97.2266 15.6641C96.901 16.4974 96.6602 17.3633 96.5039 18.2617C96.3477 19.1602 96.2695 20.0391 96.2695 20.8984C96.2695 22.2656 96.4258 23.6263 96.7383 24.9805C97.0638 26.3346 97.5716 27.5521 98.2617 28.6328C98.9648 29.7135 99.8698 30.5924 100.977 31.2695C102.083 31.9336 103.424 32.2656 105 32.2656C105.833 32.2656 106.621 32.1289 107.363 31.8555C108.105 31.569 108.776 31.1849 109.375 30.7031C109.987 30.2083 110.521 29.6289 110.977 28.9648C111.432 28.3008 111.797 27.5846 112.07 26.8164L115.449 28.1641C114.954 29.401 114.277 30.4883 113.418 31.4258C112.559 32.3503 111.576 33.1185 110.469 33.7305C109.375 34.3424 108.197 34.7982 106.934 35.0977C105.684 35.4102 104.421 35.5664 103.145 35.5664C101.764 35.5664 100.436 35.3971 99.1602 35.0586C97.8971 34.7201 96.7188 34.2383 95.625 33.6133C94.5312 32.9883 93.5352 32.2331 92.6367 31.3477C91.7513 30.4622 90.9896 29.4792 90.3516 28.3984C89.7266 27.3177 89.2383 26.1458 88.8867 24.8828C88.5482 23.6068 88.3789 22.2786 88.3789 20.8984C88.3789 19.5182 88.5482 18.1966 88.8867 16.9336C89.2383 15.6576 89.7266 14.4792 90.3516 13.3984C90.9896 12.3047 91.7513 11.3151 92.6367 10.4297C93.5352 9.54427 94.5312 8.78906 95.625 8.16406C96.7188 7.53906 97.8971 7.05729 99.1602 6.71875C100.436 6.38021 101.764 6.21094 103.145 6.21094C104.473 6.21094 105.768 6.36719 107.031 6.67969C108.307 6.99219 109.492 7.46745 110.586 8.10547C111.68 8.73047 112.65 9.52474 113.496 10.4883C114.355 11.4388 115.033 12.5586 115.527 13.8477ZM142.344 35H135.742V32.3047C134.961 33.3724 134.017 34.1667 132.91 34.6875C131.816 35.1953 130.612 35.4492 129.297 35.4492C127.578 35.4492 126.042 35.1432 124.688 34.5312C123.333 33.9193 122.188 33.0859 121.25 32.0312C120.312 30.9635 119.596 29.7135 119.102 28.2812C118.607 26.849 118.359 25.3125 118.359 23.6719C118.359 22.0312 118.607 20.4948 119.102 19.0625C119.596 17.6302 120.312 16.3867 121.25 15.332C122.188 14.2643 123.333 13.4245 124.688 12.8125C126.042 12.2005 127.578 11.8945 129.297 11.8945C130.169 11.8945 130.996 12.0247 131.777 12.2852C132.572 12.5456 133.294 12.9167 133.945 13.3984C134.609 13.8672 135.189 14.4401 135.684 15.1172C136.191 15.7812 136.589 16.5234 136.875 17.3438L139.805 12.4414H142.344V35ZM135.703 23.6719C135.703 23.0859 135.671 22.4674 135.605 21.8164C135.553 21.1654 135.456 20.5208 135.312 19.8828C135.169 19.2448 134.967 18.6393 134.707 18.0664C134.46 17.4805 134.134 16.9661 133.73 16.5234C133.34 16.0677 132.865 15.7096 132.305 15.4492C131.745 15.1888 131.094 15.0586 130.352 15.0586C129.609 15.0586 128.965 15.1953 128.418 15.4688C127.871 15.7292 127.402 16.0872 127.012 16.543C126.621 16.9857 126.296 17.5 126.035 18.0859C125.788 18.6719 125.592 19.2839 125.449 19.9219C125.306 20.5599 125.202 21.2044 125.137 21.8555C125.085 22.4935 125.059 23.099 125.059 23.6719C125.059 24.2448 125.085 24.8568 125.137 25.5078C125.202 26.1589 125.306 26.8034 125.449 27.4414C125.592 28.0794 125.788 28.6914 126.035 29.2773C126.296 29.8633 126.621 30.3841 127.012 30.8398C127.402 31.2826 127.871 31.6406 128.418 31.9141C128.965 32.1745 129.609 32.3047 130.352 32.3047C131.029 32.3047 131.628 32.168 132.148 31.8945C132.682 31.6081 133.145 31.2305 133.535 30.7617C133.939 30.293 134.277 29.7591 134.551 29.1602C134.824 28.5612 135.046 27.9427 135.215 27.3047C135.384 26.6667 135.508 26.0352 135.586 25.4102C135.664 24.7721 135.703 24.1927 135.703 23.6719ZM168.945 3.16406L165.215 9.33594C165.176 8.84115 165.085 8.27474 164.941 7.63672C164.798 6.98568 164.557 6.3737 164.219 5.80078C163.893 5.22786 163.438 4.74609 162.852 4.35547C162.279 3.95182 161.543 3.75 160.645 3.75C159.72 3.75 158.978 3.93229 158.418 4.29688C157.858 4.66146 157.428 5.20833 157.129 5.9375C156.829 6.66667 156.628 7.57161 156.523 8.65234C156.419 9.73307 156.367 10.9896 156.367 12.4219H163.203V15.0391H156.367V35H149.746V15.0391H145.645V12.4219H149.746C149.746 10.3516 149.967 8.57422 150.41 7.08984C150.853 5.60547 151.523 4.38802 152.422 3.4375C153.32 2.47396 154.447 1.77083 155.801 1.32812C157.168 0.872396 158.763 0.644531 160.586 0.644531C161.68 0.644531 162.656 0.722656 163.516 0.878906C164.388 1.02214 165.156 1.21745 165.82 1.46484C166.497 1.69922 167.09 1.96615 167.598 2.26562C168.105 2.5651 168.555 2.86458 168.945 3.16406ZM170.918 24.2969C171.725 24.4792 172.533 24.6224 173.34 24.7266C174.147 24.8307 174.961 24.8828 175.781 24.8828C176.641 24.8828 177.435 24.8047 178.164 24.6484C178.906 24.4792 179.544 24.2057 180.078 23.8281C180.625 23.4375 181.055 22.9232 181.367 22.2852C181.68 21.6471 181.836 20.8529 181.836 19.9023C181.836 19.1341 181.732 18.431 181.523 17.793C181.315 17.1549 181.003 16.6081 180.586 16.1523C180.182 15.6966 179.681 15.3451 179.082 15.0977C178.483 14.8372 177.786 14.707 176.992 14.707C176.25 14.707 175.579 14.8438 174.98 15.1172C174.395 15.3906 173.874 15.7617 173.418 16.2305C172.975 16.6862 172.591 17.2201 172.266 17.832C171.953 18.444 171.693 19.082 171.484 19.7461C171.276 20.4102 171.126 21.0807 171.035 21.7578C170.944 22.4349 170.898 23.0729 170.898 23.6719C170.898 23.776 170.898 23.8802 170.898 23.9844C170.898 24.0885 170.905 24.1927 170.918 24.2969ZM187.188 19.8438C187.188 20.7682 187.038 21.5951 186.738 22.3242C186.439 23.0404 186.029 23.6719 185.508 24.2188C185 24.7656 184.408 25.2279 183.73 25.6055C183.053 25.9831 182.331 26.2956 181.562 26.543C180.794 26.7773 180 26.9466 179.18 27.0508C178.372 27.1549 177.585 27.207 176.816 27.207C175.84 27.207 174.876 27.1419 173.926 27.0117C172.975 26.8685 172.038 26.6471 171.113 26.3477C171.257 27.207 171.484 28.0273 171.797 28.8086C172.109 29.5768 172.526 30.2539 173.047 30.8398C173.568 31.4128 174.206 31.8685 174.961 32.207C175.729 32.5456 176.634 32.7148 177.676 32.7148C178.366 32.7148 179.023 32.6107 179.648 32.4023C180.273 32.194 180.846 31.901 181.367 31.5234C181.888 31.1458 182.344 30.6966 182.734 30.1758C183.138 29.6549 183.464 29.0755 183.711 28.4375L186.562 29.4922C186.133 30.5208 185.54 31.4128 184.785 32.168C184.043 32.9102 183.197 33.5286 182.246 34.0234C181.309 34.5052 180.306 34.8633 179.238 35.0977C178.184 35.332 177.135 35.4492 176.094 35.4492C174.375 35.4492 172.786 35.1628 171.328 34.5898C169.87 34.0039 168.613 33.1901 167.559 32.1484C166.504 31.1068 165.677 29.8633 165.078 28.418C164.479 26.9727 164.18 25.3906 164.18 23.6719C164.18 21.9531 164.479 20.3711 165.078 18.9258C165.677 17.4805 166.504 16.237 167.559 15.1953C168.613 14.1536 169.87 13.3464 171.328 12.7734C172.786 12.1875 174.375 11.8945 176.094 11.8945C176.927 11.8945 177.78 11.9531 178.652 12.0703C179.525 12.1875 180.371 12.3763 181.191 12.6367C182.012 12.8841 182.786 13.2096 183.516 13.6133C184.245 14.0169 184.876 14.5182 185.41 15.1172C185.957 15.7031 186.387 16.3867 186.699 17.168C187.025 17.9492 187.188 18.8411 187.188 19.8438Z" fill="#F8BE2A"/>
</svg>
