<svg width="100" height="96" viewBox="0 0 100 96" fill="none" xmlns="http://www.w3.org/2000/svg">
<path d="M5.88232 19.1074V23.8842L11.7647 93.9441H58.8235L64.7058 23.8842V19.1074H5.88232Z" fill="#FAE8D8"/>
<path d="M63.2354 41.3989L60.8285 70.0598H9.75989L7.35303 41.3989H63.2354Z" fill="#93573D"/>
<path d="M9.80389 1.59229H60.7843C61.8243 1.59229 62.8218 1.9278 63.5572 2.52501C64.2927 3.12222 64.7058 3.93221 64.7058 4.7768V15.9226H5.88232V4.7768C5.88232 3.93221 6.29549 3.12222 7.03093 2.52501C7.76636 1.9278 8.76383 1.59229 9.80389 1.59229Z" fill="#93573D"/>
<path d="M5.88251 14.3306H64.706C65.7461 14.3306 66.7436 14.6661 67.479 15.2633C68.2144 15.8605 68.6276 16.6705 68.6276 17.5151V23.884H1.96094V17.5151C1.96094 16.6705 2.3741 15.8605 3.10954 15.2633C3.84497 14.6661 4.84244 14.3306 5.88251 14.3306Z" fill="#794832"/>
<path d="M10.6346 74.9785L9.80371 74.8367L10.6346 74.9785Z" fill="#F5CBAA"/>
<path d="M17.6469 41.3989H9.80374C6.55501 41.3989 3.92139 43.5376 3.92139 46.1758C3.92139 48.814 6.55501 50.9526 9.80374 50.9526H17.6469C20.8956 50.9526 23.5292 48.814 23.5292 46.1758C23.5292 43.5376 20.8956 41.3989 17.6469 41.3989Z" fill="#F5CBAA"/>
<path d="M17.6469 50.9526H9.80374C6.55501 50.9526 3.92139 53.0913 3.92139 55.7295C3.92139 58.3677 6.55501 60.5063 9.80374 60.5063H17.6469C20.8956 60.5063 23.5292 58.3677 23.5292 55.7295C23.5292 53.0913 20.8956 50.9526 17.6469 50.9526Z" fill="#F5CBAA"/>
<path d="M17.6469 60.5063H9.80374C6.55501 60.5063 3.92139 62.645 3.92139 65.2832C3.92139 67.9214 6.55501 70.0601 9.80374 70.0601H17.6469C20.8956 70.0601 23.5292 67.9214 23.5292 65.2832C23.5292 62.645 20.8956 60.5063 17.6469 60.5063Z" fill="#F5CBAA"/>
<path d="M13.7253 70.0601H9.80374C6.55501 70.0601 3.92139 72.1987 3.92139 74.8369C3.92139 77.4751 6.55501 79.6138 9.80374 79.6138H13.7253C16.974 79.6138 19.6077 77.4751 19.6077 74.8369C19.6077 72.1987 16.974 70.0601 13.7253 70.0601Z" fill="#F5CBAA"/>
<path d="M98.0392 56.5255V83.5942C98.0392 83.8053 97.9359 84.0078 97.7521 84.1572C97.5682 84.3065 97.3188 84.3903 97.0588 84.3903H88.5068C88.3292 84.3903 88.1548 84.4295 88.0024 84.5038L81.7968 87.5275C80.7374 88.0437 79.5564 88.3734 78.3301 88.4954C77.1038 88.6174 75.8597 88.5289 74.6782 88.2357L60.362 84.6825C60.1502 84.6299 59.9665 84.5206 59.841 84.3725C59.7154 84.2243 59.6554 84.0459 59.6706 83.8665L60.8995 69.2153L62.076 55.2109C62.0906 55.0356 62.0336 54.8613 61.9137 54.7151L55.1936 46.5296C55.1039 46.4206 54.9825 46.3312 54.8401 46.2695C54.6976 46.2078 54.5386 46.1756 54.3772 46.1757H44.1176C42.2975 46.1757 40.5519 45.5886 39.2649 44.5434C37.9779 43.4983 37.2549 42.0808 37.2549 40.6028C37.2549 39.1247 37.9779 37.7072 39.2649 36.6621C40.5519 35.6169 42.2975 35.0298 44.1176 35.0298H56.6848C56.802 35.0299 56.9182 35.0471 57.0279 35.0805L63.5965 37.0818L63.8318 37.1535L72.2948 39.7296C72.4603 39.78 72.6058 39.8657 72.7162 39.9778L87.9412 55.4308C88.033 55.524 88.1495 55.5992 88.282 55.6509C88.4145 55.7026 88.5596 55.7294 88.7066 55.7294H97.0588C97.3188 55.7294 97.5682 55.8132 97.7521 55.9626C97.9359 56.1119 98.0392 56.3144 98.0392 56.5255Z" fill="#F5CBAA"/>
<path d="M97.0588 54.1371H89.1777L74.2485 38.9827C73.9172 38.6469 73.4805 38.3899 72.9843 38.2387L65.6537 36.0064L66.5375 25.4763H68.6274C69.1475 25.4763 69.6462 25.3085 70.0139 25.0099C70.3817 24.7113 70.5882 24.3063 70.5882 23.884V17.515C70.5867 16.5275 70.2089 15.5647 69.5068 14.7585C68.8047 13.9523 67.8126 13.3422 66.6667 13.012V4.77681C66.6648 3.51037 66.0445 2.29623 64.9418 1.40072C63.839 0.505218 62.3439 0.00147493 60.7843 0H9.80392C8.24438 0.00147493 6.74924 0.505218 5.64648 1.40072C4.54371 2.29623 3.92338 3.51037 3.92157 4.77681V13.012C2.77561 13.3422 1.78353 13.9523 1.08142 14.7585C0.379315 15.5647 0.00156729 16.5275 0 17.515V23.884C0 24.3063 0.206582 24.7113 0.574301 25.0099C0.942019 25.3085 1.44075 25.4763 1.96078 25.4763H4.05049L5.34779 40.9388C4.36696 41.4877 3.55327 42.2111 2.96865 43.0538C2.38403 43.8966 2.0439 44.8366 1.97416 45.8022C1.90441 46.7679 2.10688 47.7337 2.56616 48.6262C3.02544 49.5187 3.72942 50.3144 4.62451 50.9526C3.78762 51.5491 3.11711 52.2838 2.65776 53.1075C2.19842 53.9313 1.96081 54.8251 1.96081 55.7294C1.96081 56.6337 2.19842 57.5275 2.65776 58.3513C3.11711 59.175 3.78762 59.9097 4.62451 60.5062C3.78762 61.1027 3.11711 61.8374 2.65776 62.6612C2.19842 63.4849 1.96081 64.3788 1.96081 65.283C1.96081 66.1873 2.19842 67.0811 2.65776 67.9049C3.11711 68.7286 3.78762 69.4633 4.62451 70.0598C3.49669 70.8646 2.67732 71.9156 2.26386 73.0876C1.8504 74.2597 1.86026 75.5036 2.29227 76.6712C2.72429 77.8389 3.56026 78.8812 4.70075 79.6741C5.84123 80.467 7.23821 80.9772 8.72549 81.144L9.80956 94.0521C9.84334 94.4546 10.064 94.8316 10.4269 95.1071C10.7898 95.3826 11.2679 95.5359 11.7647 95.5361H58.8235C59.3204 95.5361 59.7988 95.3829 60.1619 95.1075C60.525 94.832 60.7458 94.4549 60.7797 94.0523L61.4059 86.6065L74.1051 89.7582C75.5494 90.1158 77.0699 90.2236 78.5686 90.0745C80.0673 89.9255 81.5109 89.5229 82.8061 88.8928L88.7784 85.9825H97.0588C97.8386 85.9818 98.5862 85.73 99.1376 85.2822C99.689 84.8344 99.9992 84.2273 100 83.5941V56.5255C99.9992 55.8923 99.689 55.2852 99.1376 54.8374C98.5862 54.3897 97.8386 54.1378 97.0588 54.1371ZM9.80392 3.18454H60.7843C61.3042 3.18501 61.8026 3.35292 62.1702 3.65143C62.5377 3.94993 62.7445 4.35466 62.7451 4.77681V12.7382H7.84314V4.77681C7.84372 4.35466 8.05049 3.94993 8.41808 3.65143C8.78568 3.35292 9.28407 3.18501 9.80392 3.18454ZM3.92157 17.515C3.92215 17.0928 4.12892 16.6881 4.49651 16.3896C4.86411 16.0911 5.3625 15.9232 5.88235 15.9227H64.7059C65.2257 15.9232 65.7241 16.0911 66.0917 16.3896C66.4593 16.6881 66.6661 17.0928 66.6667 17.515V22.2918H3.92157V17.515ZM7.98137 25.4763H62.6069L61.8211 34.8392L57.7206 33.5903C57.3898 33.4891 57.0392 33.4374 56.6858 33.4376H44.1176C41.9482 33.4399 39.8556 34.0904 38.2387 35.2649C36.6218 36.4395 35.5936 38.0561 35.35 39.8067H9.80392C9.59559 39.8067 9.38971 39.8153 9.18529 39.8284L7.98137 25.4763ZM58.9975 68.4676H24.4363C25.3451 67.1946 25.6816 65.7049 25.3882 64.2529C25.0948 62.8009 24.1898 61.4766 22.8277 60.5062C23.6646 59.9097 24.3351 59.175 24.7944 58.3513C25.2538 57.5275 25.4914 56.6337 25.4914 55.7294C25.4914 54.8251 25.2538 53.9313 24.7944 53.1075C24.3351 52.2838 23.6646 51.5491 22.8277 50.9526C24.1898 49.9822 25.0948 48.6579 25.3882 47.2059C25.6816 45.7539 25.3451 44.2642 24.4363 42.9913H35.8012C36.4111 44.387 37.5377 45.5953 39.0267 46.4506C40.5156 47.3058 42.2939 47.766 44.1176 47.7681H53.8527L60.0963 55.3737L58.9975 68.4676ZM9.80392 58.9139C8.86227 58.9126 7.95267 58.6361 7.24135 58.135C6.53003 57.6339 6.06449 56.9417 5.92979 56.1849C5.7951 55.4281 6.00025 54.6572 6.50776 54.0131C7.01526 53.369 7.79124 52.8947 8.69387 52.6768C9.05412 52.5896 9.42801 52.5452 9.80392 52.5449H17.6471C18.6871 52.5449 19.6846 52.8804 20.42 53.4776C21.1555 54.0748 21.5686 54.8848 21.5686 55.7294C21.5686 56.574 21.1555 57.384 20.42 57.9812C19.6846 58.5784 18.6871 58.9139 17.6471 58.9139H9.80392ZM9.80392 42.9913H17.6471C18.6871 42.9913 19.6846 43.3268 20.42 43.924C21.1555 44.5212 21.5686 45.3312 21.5686 46.1758C21.5686 47.0204 21.1555 47.8304 20.42 48.4276C19.6846 49.0248 18.6871 49.3603 17.6471 49.3603H9.80392C8.76386 49.3603 7.76639 49.0248 7.03095 48.4276C6.29552 47.8304 5.88235 47.0204 5.88235 46.1758C5.88235 45.3312 6.29552 44.5212 7.03095 43.924C7.76639 43.3268 8.76386 42.9913 9.80392 42.9913ZM5.88235 65.283C5.88359 64.4387 6.29715 63.6293 7.03232 63.0323C7.76749 62.4353 8.76424 62.0995 9.80392 62.0985H17.6471C18.6871 62.0985 19.6846 62.434 20.42 63.0312C21.1555 63.6284 21.5686 64.4384 21.5686 65.283C21.5686 66.1276 21.1555 66.9376 20.42 67.5348C19.6846 68.132 18.6871 68.4676 17.6471 68.4676H9.80392C8.76424 68.4666 7.76749 68.1307 7.03232 67.5337C6.29715 66.9367 5.88359 66.1273 5.88235 65.283ZM5.88235 74.8366C5.88359 73.9923 6.29715 73.1829 7.03232 72.5859C7.76749 71.9889 8.76424 71.6531 9.80392 71.6521H13.7255C14.7656 71.6521 15.763 71.9876 16.4985 72.5848C17.2339 73.182 17.6471 73.992 17.6471 74.8366C17.6471 75.6812 17.2339 76.4912 16.4985 77.0884C15.763 77.6857 14.7656 78.0212 13.7255 78.0212H9.80392C8.76424 78.0202 7.76749 77.6843 7.03232 77.0873C6.29715 76.4903 5.88359 75.6809 5.88235 74.8366ZM56.9919 92.3516H13.5963L12.6603 81.2057H13.7255C15.1027 81.2067 16.4559 80.913 17.6488 80.3542C18.8417 79.7953 19.8322 78.9911 20.5206 78.0225C21.209 77.0538 21.5708 75.955 21.5698 74.8366C21.5688 73.7183 21.2049 72.6199 20.5147 71.6521H58.7304L56.9919 92.3516ZM96.0784 82.798H88.5069C87.9738 82.798 87.4508 82.9157 86.9936 83.1383L80.788 86.1616C79.9638 86.5627 79.0451 86.819 78.0914 86.9138C77.1377 87.0088 76.1701 86.9402 75.251 86.7126L61.6797 83.3443L64.0326 55.3188C64.0754 54.7934 63.9042 54.271 63.5453 53.8324L56.8255 45.647C56.5571 45.3194 56.1931 45.0509 55.766 44.8653C55.3388 44.6798 54.8617 44.583 54.3772 44.5835H44.1176C42.8176 44.5835 41.5707 44.1641 40.6514 43.4176C39.7321 42.6711 39.2157 41.6586 39.2157 40.6029C39.2157 39.5471 39.7321 38.5346 40.6514 37.7881C41.5707 37.0416 42.8176 36.6222 44.1176 36.6222H56.5071L71.3551 41.1438L86.4108 56.426C86.6857 56.7061 87.0349 56.9321 87.4325 57.0872C87.83 57.2423 88.2656 57.3224 88.7066 57.3217H96.0784V82.798Z" fill="black"/>
</svg>
