<svg width="100" height="96" viewBox="0 0 100 96" fill="none" xmlns="http://www.w3.org/2000/svg">
<path d="M70.8333 27.0686C74.055 27.0686 76.6666 24.5735 76.6666 21.4957C76.6666 18.4179 74.055 15.9229 70.8333 15.9229C67.6117 15.9229 65 18.4179 65 21.4957C65 24.5735 67.6117 27.0686 70.8333 27.0686Z" fill="#F5CBAA"/>
<path d="M81.6665 36.6223H78.3332V32.404L72.0317 24.8793L74.6347 22.8889L81.3013 30.8503C81.5378 31.1328 81.6666 31.4838 81.6665 31.8455V36.6223Z" fill="#D5D5D3"/>
<path d="M51.6666 15.9227L48.3333 17.515V19.1072C48.3333 19.9518 47.9821 20.7618 47.357 21.359C46.7319 21.9562 45.884 22.2917 45 22.2917H35V6.36914H48.3333V11.1459L49.4437 12.7382L51.6666 15.9227Z" fill="#FAE8D8"/>
<path d="M49.4436 12.7383H41.6665V9.55371H48.3332V11.146L49.4436 12.7383Z" fill="#FDB683"/>
<path d="M5 66.8755H16.6666V76.429H5V66.8755Z" fill="#93573D"/>
<path d="M21.6667 93.9438C28.11 93.9438 33.3334 88.9537 33.3334 82.798C33.3334 76.6423 28.11 71.6521 21.6667 71.6521C15.2234 71.6521 10 76.6423 10 82.798C10 88.9537 15.2234 93.9438 21.6667 93.9438Z" fill="#F5CBAA"/>
<path d="M21.6665 87.575C24.4279 87.575 26.6665 85.4363 26.6665 82.7982C26.6665 80.1601 24.4279 78.0215 21.6665 78.0215C18.9051 78.0215 16.6665 80.1601 16.6665 82.7982C16.6665 85.4363 18.9051 87.575 21.6665 87.575Z" fill="#D5D5D3"/>
<path d="M4.99985 27.0686H24.9999C25.884 27.0686 26.7318 27.4041 27.3569 28.0013C27.9821 28.5986 28.3333 29.4086 28.3333 30.2531V52.5449H1.6665V30.2531C1.6665 29.4086 2.01769 28.5986 2.64282 28.0013C3.26794 27.4041 4.11579 27.0686 4.99985 27.0686Z" fill="#93573D"/>
<path d="M6.6665 38.2146H9.99988V47.7681H6.6665V38.2146Z" fill="#DF6257"/>
<path d="M1.6665 31.8455H28.3333V35.03H1.6665V31.8455Z" fill="#C7483C"/>
<path d="M61.4643 78.2146L71.8689 68.2744C72.8065 67.3786 73.3332 66.1636 73.3332 64.8968V52.5449C73.3332 50.8557 74.0356 49.2357 75.2859 48.0412C76.5361 46.8468 78.2318 46.1758 79.9999 46.1758V54.1372C79.9999 55.1827 80.2155 56.2179 80.6342 57.1838C81.053 58.1498 81.6669 59.0274 82.4407 59.7667C83.2145 60.506 84.1332 61.0924 85.1442 61.4925C86.1553 61.8926 87.2389 62.0985 88.3333 62.0985V68.4676H84.6157C83.6869 68.4676 82.7682 68.6531 81.9187 69.0121C81.0693 69.3711 80.3077 69.8957 79.6828 70.5523L66.9837 83.898C66.3588 84.5546 65.5972 85.0792 64.7477 85.4382C63.8982 85.7972 62.9796 85.9827 62.0507 85.9827H1.6665C1.66647 81.0678 3.47198 76.3089 6.76828 72.5355C10.0646 68.7621 14.6425 66.2136 19.704 65.3344L19.9999 65.2831V58.914H48.3332C48.3332 60.2398 47.8326 61.5211 46.9234 62.5227C46.0141 63.5242 44.7572 64.1789 43.3834 64.3663C41.5191 64.6208 39.8135 65.5092 38.5796 66.8683C37.3458 68.2275 36.6665 69.9663 36.6665 71.7654V72.1394C36.6666 74.1217 37.4909 76.0227 38.958 77.4244C40.4251 78.826 42.415 79.6135 44.4899 79.6136H57.9288C59.2549 79.6136 60.5266 79.1103 61.4643 78.2146Z" fill="#93573D"/>
<path d="M18.3926 73.9561L17.1138 71.0153C18.2356 70.5709 19.4038 70.2422 20.5986 70.0347L21.1947 73.1679C20.2339 73.3345 19.2945 73.5987 18.3926 73.9561Z" fill="#DF6257"/>
<path d="M11.3589 80.3076L8.35889 78.9196C9.65059 76.3738 11.6156 74.1943 14.0595 72.5967L15.9408 75.2257C13.9765 76.5098 12.3971 78.2615 11.3589 80.3076Z" fill="#DF6257"/>
<path d="M50 9.55393H41.6666V13.3356C41.6667 14.0791 41.4591 14.8092 41.0654 15.4506C40.6716 16.092 40.1059 16.6214 39.4265 16.9842C38.7472 17.347 37.9789 17.5302 37.2008 17.5147C36.4226 17.4993 35.6629 17.2858 35 16.8963C34.7707 16.762 34.5552 16.6074 34.3562 16.4346C33.5505 15.7401 33.0453 14.7833 32.9395 13.7516L32.5833 10.3461C32.4672 9.23928 32.5952 8.1215 32.959 7.06485C33.3229 6.0082 33.9145 5.03614 34.6958 4.21136C35.4771 3.38659 36.4306 2.72741 37.4949 2.27634C38.5592 1.82527 39.7106 1.59233 40.875 1.59253H41.6666C43.8768 1.59253 45.9964 2.43132 47.5592 3.92437C49.122 5.41742 50 7.44244 50 9.55393Z" fill="#F5CBAA"/>
<path d="M35 44.5837V47.7683C35 49.0352 35.5268 50.2502 36.4645 51.146C37.4021 52.0418 38.6739 52.5451 40 52.5451H56.6666L48.3333 73.2446H56.6666L64.5 55.2287C64.9787 54.1274 65.183 52.9348 65.0967 51.7452C65.0103 50.5556 64.6357 49.4014 64.0025 48.3737C63.2911 47.2195 62.2766 46.2627 61.0594 45.598C59.8422 44.9333 58.4645 44.5837 57.0625 44.5837H35Z" fill="#F5CBAA"/>
<path d="M55 33.4377L45 22.2917H35V44.5837H48.3333V36.6223L50.2023 38.4079C51.14 39.3036 52.4117 39.8069 53.7377 39.8069H70V33.4377H55Z" fill="#93573D"/>
<path d="M98.3334 82.7981C98.3316 85.6833 97.1582 88.4553 95.06 90.5305C92.9619 92.6057 90.1029 93.8222 87.0847 93.924C84.0666 94.0257 81.1249 93.0047 78.8789 91.076C76.6329 89.1472 75.2578 86.4612 75.0432 83.5833C74.8285 80.7054 75.7911 77.8602 77.7282 75.6468C79.6652 73.4333 82.4257 72.0242 85.4285 71.7161C88.4312 71.408 91.4419 72.225 93.8268 73.995C96.2117 75.7651 97.7847 78.3501 98.2146 81.2059C98.294 81.7332 98.3337 82.2654 98.3334 82.7981Z" fill="#F5CBAA"/>
<path d="M98.2146 81.2058H85L78.4 90.6638C77.0971 89.4135 76.1235 87.8856 75.5592 86.2057C74.9949 84.5259 74.8561 82.742 75.1542 81.0009C75.4523 79.2598 76.1788 77.6111 77.2739 76.1906C78.369 74.77 79.8015 73.6181 81.4535 72.8295C83.1055 72.041 84.9298 71.6384 86.7764 71.6548C88.623 71.6712 90.4392 72.1062 92.0756 72.9239C93.7119 73.7417 95.1217 74.9189 96.1889 76.3587C97.2562 77.7984 97.9505 79.4597 98.2146 81.2058Z" fill="#2F486E"/>
<path d="M91.4582 82.7982C91.4596 83.9962 90.9901 85.151 90.1428 86.0342C89.2955 86.9174 88.132 87.4645 86.8826 87.5673C85.6332 87.6701 84.3889 87.3212 83.396 86.5895C82.4031 85.8578 81.7338 84.7966 81.5206 83.6161C81.3074 82.4355 81.5659 81.2215 82.2449 80.2142C82.9238 79.207 83.9738 78.48 85.1871 78.177C86.4003 77.874 87.6884 78.0171 88.7965 78.578C89.9045 79.1389 90.7519 80.0767 91.1707 81.2059C91.3621 81.7168 91.4594 82.2556 91.4582 82.7982Z" fill="#CECECC"/>
<path d="M91.1707 81.2059H84.9999L82.1728 85.2561C81.8128 84.6838 81.5824 84.0458 81.4964 83.3832C81.4105 82.7206 81.471 82.0481 81.6739 81.4092C81.8769 80.7703 82.2178 80.1791 82.6747 79.6739C83.1316 79.1687 83.6944 78.7606 84.3266 78.476C84.9588 78.1914 85.6465 78.0367 86.3452 78.0217C87.0439 78.0067 87.7382 78.1319 88.3831 78.3892C89.028 78.6464 89.6093 79.03 90.0895 79.5152C90.5696 80.0003 90.9379 80.5763 91.1707 81.2059Z" fill="#C6C6C4"/>
<path d="M79.1665 80.2407L84.2707 85.117C84.558 85.3915 84.899 85.6092 85.2744 85.7577C85.6497 85.9062 86.052 85.9827 86.4582 85.9827C86.8645 85.9827 87.2668 85.9062 87.6421 85.7577C88.0175 85.6092 88.3585 85.3915 88.6458 85.117C88.933 84.8426 89.1609 84.5168 89.3164 84.1582C89.4719 83.7996 89.5519 83.4153 89.5519 83.0272C89.5519 82.639 89.4719 82.2547 89.3164 81.8961C89.1609 81.5376 88.933 81.2118 88.6458 80.9373L83.5415 76.061L79.1665 80.2407Z" fill="#D5D5D3"/>
<path d="M71.6665 87.575H78.3332L84.9999 78.0214H98.3333C98.3333 75.4876 97.2797 73.0576 95.4043 71.266C93.5289 69.4743 90.9854 68.4678 88.3332 68.4678H84.9999C81.4636 68.4678 78.0723 69.8098 75.5718 72.1987C73.0713 74.5875 71.6665 77.8275 71.6665 81.2059V87.575Z" fill="#93573D"/>
<path d="M70 33.4377V39.8069L73.3333 41.3992V44.5837H80V36.6223L70 33.4377Z" fill="#FAE8D8"/>
<path d="M73.3333 46.1758C75.1743 46.1758 76.6666 44.7501 76.6666 42.9913C76.6666 41.2326 75.1743 39.8069 73.3333 39.8069C71.4924 39.8069 70 41.2326 70 42.9913C70 44.7501 71.4924 46.1758 73.3333 46.1758Z" fill="#34507B"/>
<path d="M20 63.6909H31.6666V66.8755H20V63.6909Z" fill="#C7483C"/>
<path d="M54.5957 82.7981H23.3335V79.6137H57.929C59.2551 79.6137 60.5268 79.1105 61.4645 78.2147L61.6667 78.0215L58.1311 81.3991C57.1935 82.2949 55.9217 82.7981 54.5957 82.7981Z" fill="#93573D"/>
<path d="M84.9999 66.8755C81.4567 66.8801 78.0292 68.0811 75.3233 70.2664C72.6173 72.4517 70.807 75.4806 70.2124 78.8176H73.6059C74.1789 76.3373 75.6202 74.1177 77.6917 72.5255C79.7633 70.9333 82.3412 70.0636 84.9999 70.0601H88.3333V66.8755H84.9999Z" fill="#C7483C"/>
<path d="M45.0002 52.5449H31.6668C29.8259 52.5449 28.3335 53.9707 28.3335 55.7295C28.3335 57.4883 29.8259 58.9141 31.6668 58.9141H45.0002C46.8411 58.9141 48.3335 57.4883 48.3335 55.7295C48.3335 53.9707 46.8411 52.5449 45.0002 52.5449Z" fill="#34507B"/>
<path d="M48.3335 36.8955L42.8454 31.6526L40.4883 33.9042L48.3335 41.3989V36.8955Z" fill="#C7483C"/>
<path d="M48.3335 73.2446H58.3334C59.2175 73.2446 60.0653 73.5801 60.6904 74.1773C61.3156 74.7745 61.6667 75.5845 61.6667 76.4291C61.6667 77.2736 61.3156 78.0836 60.6904 78.6808C60.0653 79.278 59.2175 79.6135 58.3334 79.6135H48.3335V73.2446Z" fill="#D5D5D3"/>
<path d="M17.1138 71.0153L18.3926 73.9563C19.2945 73.5988 20.2339 73.3345 21.1947 73.1678L20.5986 70.0347C19.4038 70.2421 18.2356 70.5709 17.1138 71.0153Z" fill="black"/>
<path d="M8.35889 78.9196L11.3589 80.3076C12.3971 78.2615 13.9765 76.5098 15.9408 75.2257L14.0595 72.5967C11.6156 74.1943 9.65059 76.3738 8.35889 78.9196Z" fill="black"/>
<path d="M100 78.0212C100.002 75.2791 98.9438 72.6328 97.0287 70.5903L94.545 72.714C95.5304 73.7645 96.2052 75.0467 96.5 76.4289H85C84.7256 76.4289 84.4555 76.4937 84.2136 76.6173C83.9717 76.741 83.7655 76.9198 83.6133 77.1379L77.4415 85.9826H73.3333V81.2057C73.3369 78.2507 74.5671 75.4177 76.7543 73.3281C78.9415 71.2386 81.9069 70.0632 85 70.0599H88.3333C89.9723 70.0572 91.5754 70.5186 92.94 71.3858L94.7858 68.7339C93.3466 67.8188 91.7115 67.2226 90 66.9892V62.0985C90 61.6762 89.8244 61.2712 89.5118 60.9726C89.1993 60.674 88.7754 60.5062 88.3333 60.5062C86.5658 60.5043 84.8713 59.8327 83.6215 58.6387C82.3717 57.4447 81.6686 55.8258 81.6667 54.1372V47.7681H86.6667C87.1087 47.7681 87.5326 47.6003 87.8452 47.3017C88.1577 47.0031 88.3333 46.5981 88.3333 46.1758V35.0299C88.3333 34.6076 88.1577 34.2026 87.8452 33.904C87.5326 33.6054 87.1087 33.4377 86.6667 33.4377H83.7271C83.0306 33.4387 82.3375 33.5299 81.6667 33.7089V31.8454C81.6668 31.4837 81.538 31.1327 81.3015 30.8502L75.8483 24.3378C76.5627 23.1867 76.8197 21.8284 76.5722 20.5111C76.3247 19.1939 75.5893 18.0057 74.5004 17.1638C73.4116 16.3219 72.0419 15.8824 70.6419 15.9257C69.2418 15.969 67.9048 16.4922 66.8752 17.3996C65.8456 18.3071 65.1922 19.5382 65.0344 20.868C64.8766 22.1977 65.225 23.5373 66.0158 24.6419C66.8066 25.7466 67.9871 26.5424 69.3415 26.884C70.6959 27.2256 72.1338 27.0902 73.3923 26.5025L78.3333 32.4039V34.4129L71.0062 32.0797C70.5262 31.9216 70.0217 31.8424 69.5139 31.8454H55.7667L47.8542 23.026C48.5162 22.5866 49.0571 22.0007 49.4307 21.3183C49.8044 20.636 49.9997 19.8773 50 19.1072V18.499L52.4121 17.3468C52.6234 17.2458 52.8099 17.103 52.9591 16.9279C53.1083 16.7529 53.2168 16.5495 53.2775 16.3313C53.3381 16.1131 53.3495 15.885 53.3108 15.6623C53.2722 15.4396 53.1844 15.2272 53.0533 15.0394L50.3158 11.1164C50.6959 11.0463 51.0386 10.852 51.2851 10.5669C51.5316 10.2817 51.6665 9.92345 51.6667 9.55362C51.6636 7.02073 50.6091 4.59241 48.7344 2.80139C46.8597 1.01037 44.3179 0.00289729 41.6667 0C38.5281 0 35.6219 0.861219 33.4604 3.14314C32.5239 4.13339 31.8145 5.29981 31.3777 6.5675C30.941 7.83519 30.7866 9.17612 30.9244 10.5042L31.281 13.9101C31.4311 15.3786 32.1657 16.7359 33.3333 17.7017V47.7681C33.3324 48.8867 33.6419 49.9855 34.2302 50.9526H31.6667C31.0988 50.9524 30.5351 51.045 30 51.2265V30.2531C29.9985 28.9867 29.4712 27.7725 28.5339 26.877C27.5965 25.9815 26.3256 25.4777 25 25.4763H5C3.67437 25.4777 2.40347 25.9815 1.46611 26.877C0.528752 27.7725 0.00148919 28.9867 3.73012e-07 30.2531V38.2145H3.33333V35.0299H26.6667V50.9526H3.33333V41.399H3.73012e-07V54.4005C-0.000368918 55.1464 0.273477 55.8687 0.773733 56.4413C1.27399 57.014 1.96888 57.4006 2.73708 57.5337L18.3333 60.2429V63.9794C16.9203 64.292 15.5404 64.7284 14.2112 65.2831H5C4.55797 65.2831 4.13405 65.4508 3.82149 65.7494C3.50893 66.048 3.33333 66.453 3.33333 66.8753V74.433C1.15566 77.9266 0.00414619 81.9164 3.73012e-07 85.9826C3.73012e-07 86.4049 0.175595 86.8099 0.488156 87.1085C0.800716 87.4071 1.22464 87.5748 1.66667 87.5748H9.30646C10.3025 89.927 12.0111 91.9414 14.2132 93.3597C16.4154 94.7781 19.0108 95.5359 21.6667 95.5359C24.3226 95.5359 26.9179 94.7781 29.1201 93.3597C31.3223 91.9414 33.0309 89.927 34.0269 87.5748H62.05C63.211 87.5742 64.3591 87.3422 65.421 86.8936C66.4828 86.4449 67.435 85.7896 68.2167 84.9695L70 83.0948V87.5748C70 87.9971 70.1756 88.4021 70.4881 88.7007C70.8007 88.9993 71.2246 89.1671 71.6667 89.1671H75.12C76.5876 91.5954 78.8529 93.4931 81.5645 94.5661C84.2762 95.6391 87.2826 95.8273 90.1176 95.1016C92.9526 94.3758 95.4578 92.7767 97.2445 90.5522C99.0313 88.3276 99.9999 85.602 100 82.798C100.001 81.5785 99.8184 80.3652 99.4571 79.1955C99.6282 79.0467 99.7649 78.8654 99.8584 78.6632C99.9519 78.461 100 78.2423 100 78.0212ZM68.3333 21.4956C68.3333 21.0233 68.4799 20.5615 68.7547 20.1687C69.0294 19.7759 69.4198 19.4698 69.8766 19.289C70.3334 19.1083 70.8361 19.061 71.3211 19.1531C71.806 19.2453 72.2515 19.4728 72.6011 19.8068C72.9507 20.1408 73.1888 20.5664 73.2853 21.0297C73.3818 21.493 73.3322 21.9732 73.143 22.4096C72.9538 22.8461 72.6334 23.2191 72.2223 23.4815C71.8111 23.744 71.3278 23.884 70.8333 23.884C70.1705 23.8834 69.535 23.6315 69.0664 23.1837C68.5977 22.736 68.334 22.1289 68.3333 21.4956ZM44.4896 78.0212C42.8574 78.0194 41.2926 77.3992 40.1385 76.2965C38.9843 75.1939 38.3351 73.6989 38.3333 72.1396C38.3333 70.5764 38.7471 69.1143 39.8375 67.9115C40.8093 66.8424 42.1512 66.143 43.6181 65.9411C45.389 65.6996 47.0092 64.856 48.1815 63.5652C49.3538 62.2744 49.9995 60.6229 50 58.914C50.0003 58.7047 49.9573 58.4975 49.8734 58.3042C49.7896 58.1109 49.6666 57.9354 49.5115 57.7876C49.7947 57.2218 49.9584 56.608 49.993 55.9816C50.0277 55.3552 49.9326 54.7284 49.7133 54.1372H54.24L46.9262 72.3038C46.7495 72.7412 46.6614 73.2068 46.6667 73.6757V78.0212H44.4896ZM50 74.8367H58.3333C58.6908 74.837 59.0386 74.9471 59.3256 75.1507C59.6125 75.3543 59.8234 75.6406 59.927 75.9675C60.0306 76.2943 60.0214 76.6443 59.9009 76.9658C59.7804 77.2873 59.5549 77.5632 59.2577 77.7529C58.8388 77.9284 58.3866 78.0197 57.9292 78.0212H50V74.8367ZM62.9337 74.558C62.6022 73.8172 62.0805 73.1681 61.4168 72.671C60.7531 72.1738 59.9689 71.8446 59.1367 71.7138L66.039 55.8383C66.6523 54.4274 66.8918 52.8936 66.7362 51.3731C66.5805 49.8526 66.0346 48.3922 65.1467 47.1215C64.2589 45.8508 63.0565 44.8091 61.6463 44.0886C60.2362 43.3681 58.6617 42.9912 57.0625 42.9913H50V40.4663L50.4881 40.9327C50.6429 41.0805 50.8266 41.1978 51.0288 41.2778C51.2311 41.3578 51.4478 41.399 51.6667 41.399H68.62C68.353 42.1194 68.2709 42.8906 68.3806 43.6476C68.4902 44.4047 68.7885 45.1255 69.2504 45.7496C69.7122 46.3736 70.324 46.8827 71.0345 47.2339C71.745 47.5851 72.5333 47.7683 73.3333 47.7681H73.3379C72.2515 49.1442 71.6648 50.8213 71.6667 52.5449V64.8969C71.6641 65.741 71.3133 66.5501 70.6902 67.1486L62.9337 74.558ZM73.3333 44.5835C73.0037 44.5835 72.6815 44.4902 72.4074 44.3152C72.1333 44.1402 71.9197 43.8916 71.7935 43.6006C71.6674 43.3097 71.6344 42.9895 71.6987 42.6806C71.763 42.3718 71.9217 42.0881 72.1548 41.8654C72.3879 41.6427 72.6849 41.491 73.0082 41.4296C73.3315 41.3682 73.6666 41.3997 73.9711 41.5202C74.2757 41.6407 74.536 41.8448 74.7191 42.1067C74.9022 42.3685 75 42.6764 75 42.9913C74.9995 43.4134 74.8237 43.8182 74.5113 44.1167C74.1988 44.4152 73.7752 44.5831 73.3333 44.5835ZM85 36.6222V44.5835H81.6667V37.118C82.3005 36.7938 83.0081 36.6235 83.7271 36.6222H85ZM78.3333 42.9913C78.3336 42.227 78.1418 41.4739 77.7742 40.7951C77.4065 40.1163 76.8737 39.5318 76.2205 39.0906C75.5673 38.6494 74.8128 38.3644 74.0203 38.2596C73.2279 38.1548 72.4208 38.2332 71.6667 38.4883V35.6469L78.3333 37.7698V42.9913ZM55 35.0299H68.3333V38.2145H52.3571L42.8452 29.1272L40.4881 31.3791L46.6667 37.2816V42.9913H36.6667V23.884H44.2333L53.7346 34.474C53.8911 34.6484 54.0852 34.7884 54.3036 34.8843C54.522 34.9803 54.7596 35.0299 55 35.0299ZM35.9319 5.27997C37.4554 3.67157 39.4773 3.18454 41.6667 3.18454C43.1443 3.18633 44.5795 3.6562 45.7477 4.52058C46.9159 5.38495 47.7511 6.59503 48.1225 7.96135H41.6667C41.2246 7.96135 40.8007 8.12911 40.4882 8.42771C40.1756 8.72632 40 9.13132 40 9.55362V13.3353C39.9975 13.9975 39.7294 14.6335 39.2508 15.1126C38.7722 15.5916 38.1196 15.877 37.4273 15.9102C36.735 15.9434 36.0558 15.7217 35.5294 15.2908C35.0031 14.8599 34.6697 14.2526 34.5979 13.594L34.2412 10.1881C34.1436 9.30233 34.2438 8.40679 34.5352 7.56071C34.8266 6.71463 35.3027 5.93726 35.9319 5.27997ZM37.2917 19.1072C38.8935 19.1057 40.4293 18.497 41.5619 17.4149C42.6946 16.3328 43.3317 14.8656 43.3333 13.3353V11.1459H46.6667C46.6666 11.4603 46.764 11.7677 46.9467 12.0292L49.2327 15.3057L47.5869 16.0915C47.3103 16.2238 47.0778 16.4271 46.9153 16.6784C46.7528 16.9298 46.6667 17.2195 46.6667 17.515V19.1072C46.6662 19.5294 46.4904 19.9341 46.178 20.2326C45.8655 20.5311 45.4419 20.699 45 20.6995H36.6667V19.076C36.8743 19.0965 37.0829 19.107 37.2917 19.1072ZM36.6667 47.7681V46.1758H57.0625C58.1133 46.1759 59.1478 46.4236 60.0744 46.897C61.0009 47.3705 61.7909 48.0551 62.3742 48.89C62.9576 49.725 63.3162 50.6846 63.4185 51.6837C63.5207 52.6828 63.3633 53.6906 62.9602 54.6176L55.5542 71.6521H50.76L58.2223 53.1165C58.3194 52.8753 58.3536 52.6152 58.3219 52.3585C58.2903 52.1019 58.1937 51.8565 58.0406 51.6434C57.8874 51.4304 57.6823 51.2562 57.443 51.1359C57.2036 51.0155 56.9372 50.9526 56.6667 50.9526H40C39.1163 50.9516 38.269 50.6158 37.6441 50.0188C37.0192 49.4218 36.6677 48.6124 36.6667 47.7681ZM31.6667 54.1372H45C45.442 54.1372 45.8659 54.3049 46.1785 54.6035C46.4911 54.9021 46.6667 55.3071 46.6667 55.7294C46.6667 56.1517 46.4911 56.5567 46.1785 56.8553C45.8659 57.154 45.442 57.3217 45 57.3217H31.6667C31.2246 57.3217 30.8007 57.154 30.4882 56.8553C30.1756 56.5567 30 56.1517 30 55.7294C30 55.3071 30.1756 54.9021 30.4882 54.6035C30.8007 54.3049 31.2246 54.1372 31.6667 54.1372ZM3.33333 31.8454V30.2531C3.33383 29.831 3.50958 29.4262 3.82204 29.1277C4.13449 28.8292 4.55813 28.6613 5 28.6609H25C25.4419 28.6613 25.8655 28.8292 26.178 29.1277C26.4904 29.4262 26.6662 29.831 26.6667 30.2531V31.8454H3.33333ZM3.33333 54.1372H26.6667V57.3217H20.1502L3.33333 54.4005V54.1372ZM8.72708 68.4676C8.00362 69.0287 7.31561 69.6303 6.66667 70.2692V68.4676H8.72708ZM21.6667 92.3516C19.9132 92.3442 18.1921 91.8995 16.6737 91.0618C15.1552 90.224 13.8919 89.0221 13.0087 87.5748H17.2612C18.4775 88.6009 20.0441 89.1671 21.6667 89.1671C23.2892 89.1671 24.8559 88.6009 26.0721 87.5748H30.3246C29.4414 89.0221 28.1781 90.224 26.6597 91.0618C25.1412 91.8995 23.4201 92.3442 21.6667 92.3516ZM65.75 82.8279C65.2809 83.3198 64.7096 83.7129 64.0725 83.9819C63.4354 84.251 62.7466 84.39 62.05 84.3903H3.40229C3.76072 80.2333 5.51243 76.2975 8.39748 73.1669C11.2825 70.0363 15.1472 67.8777 19.4179 67.0115C19.8487 66.922 20.2883 66.8763 20.7292 66.8753H31.6667V63.6908H21.6667V60.5062H46.3125C46.0301 61.1118 45.5914 61.6389 45.0375 62.0382C44.4837 62.4376 43.8328 62.6961 43.1458 62.7896C40.885 63.1002 38.8166 64.1777 37.3187 65.8252C35.706 67.5994 35 69.819 35 72.1398C34.9986 74.2972 35.8062 76.3838 37.2767 78.0212H23.3333V81.2057H57.9292C59.6947 81.1933 61.3856 80.5241 62.6431 79.3402L73.0473 69.4005C74.2932 68.2033 74.9948 66.5851 75 64.8969V52.5449C75.0012 51.5573 75.3222 50.5943 75.919 49.7879C76.5158 48.9815 77.3591 48.3713 78.3333 48.041V54.1372C78.3363 56.3942 79.1743 58.5776 80.6992 60.3014C82.2241 62.0253 84.3378 63.1788 86.6667 63.558V66.8753C85.6319 66.8753 84.5731 66.8156 83.5444 66.944C80.4266 67.2394 77.4833 68.4582 75.1261 70.43C72.7688 72.4018 71.1154 75.0281 70.3971 77.9416L65.75 82.8279ZM85.8919 79.6135H85.9765L87.9881 81.5356C88.3378 81.8709 88.5345 82.3247 88.5354 82.798C88.5354 83.1511 88.4258 83.4963 88.2205 83.79C88.0152 84.0836 87.7233 84.3124 87.3818 84.4476C87.0403 84.5827 86.6646 84.618 86.3021 84.5491C85.9395 84.4802 85.6066 84.3102 85.3452 84.0605L83.8112 82.5952L85.8919 79.6135ZM86.6667 92.3516C85.2225 92.3473 83.7963 92.0458 82.485 91.4677C81.1738 90.8896 80.0082 90.0485 79.0677 89.0015C79.3315 88.8786 79.5566 88.6911 79.72 88.4581L81.165 86.3882C81.9675 87.5126 83.126 88.3617 84.4707 88.811C85.8153 89.2602 87.2753 89.2859 88.6363 88.8843C89.9974 88.4828 91.1879 87.6751 92.0333 86.5797C92.8786 85.4843 93.3342 84.1589 93.3333 82.798C93.3357 81.8545 93.1158 80.9225 92.6898 80.0713C92.6121 79.9146 92.5265 79.763 92.4362 79.6135H96.0969C96.629 81.0546 96.7916 82.5966 96.5712 84.1102C96.3507 85.6238 95.7537 87.0649 94.83 88.3125C93.9064 89.5602 92.6831 90.5781 91.2627 91.2809C89.8423 91.9837 88.2662 92.3508 86.6667 92.3516Z" fill="black"/>
<path d="M6.6665 38.2146H9.99988V47.7681H6.6665V38.2146Z" fill="black"/>
</svg>
