<svg width="42" height="10" viewBox="0 0 42 10" fill="none" xmlns="http://www.w3.org/2000/svg">
<path d="M40.7515 8.26099H19.5884V9.34794H40.7515V8.26099Z" fill="#111111"/>
<path d="M2.39246 7.60865H0.696289V1.49452H2.39246V4.40722C2.91654 4.00811 3.40503 3.56511 3.85791 3.07826C4.31365 2.59139 4.70528 2.06206 5.03284 1.49028H6.19068C5.88876 2.00262 5.54268 2.481 5.15247 2.92539C4.76224 3.36981 4.33784 3.78165 3.87928 4.16096L6.33593 7.60865H4.56714L2.71717 5.01015C2.66305 5.04694 2.60893 5.08233 2.55481 5.11631C2.50354 5.15026 2.44942 5.18424 2.39246 5.2182V7.60865ZM11.7705 5.14602C11.7705 5.40078 11.7363 5.63996 11.668 5.86359C11.5996 6.0872 11.5042 6.29383 11.3817 6.48348C11.2621 6.67313 11.1168 6.84439 10.9459 6.99724C10.775 7.14726 10.587 7.27463 10.382 7.37937C10.1797 7.48411 9.96184 7.56478 9.72828 7.62139C9.49757 7.678 9.25972 7.70631 9.01476 7.70631C8.76981 7.70631 8.53198 7.678 8.30127 7.62139C8.07055 7.56478 7.85265 7.48411 7.64758 7.37937C7.44536 7.27463 7.25879 7.14726 7.08788 6.99724C6.91699 6.84439 6.7703 6.67313 6.64782 6.48348C6.52821 6.29383 6.43421 6.0872 6.36585 5.86359C6.29749 5.63713 6.2633 5.39794 6.2633 5.14602C6.2633 4.89409 6.29749 4.65633 6.36585 4.4327C6.43421 4.20626 6.52821 3.9982 6.64782 3.80854C6.7703 3.61889 6.91699 3.44907 7.08788 3.29904C7.25879 3.1462 7.44536 3.01739 7.64758 2.91265C7.85265 2.80794 8.07055 2.72726 8.30127 2.67065C8.53198 2.61402 8.76981 2.58572 9.01476 2.58572C9.25972 2.58572 9.49757 2.61402 9.72828 2.67065C9.96184 2.72726 10.1797 2.80794 10.382 2.91265C10.587 3.01739 10.775 3.1462 10.9459 3.29904C11.1168 3.44907 11.2621 3.61889 11.3817 3.80854C11.5042 3.9982 11.5996 4.20626 11.668 4.4327C11.7363 4.65633 11.7705 4.89409 11.7705 5.14602ZM10.3008 5.14602C10.3008 5.01015 10.2922 4.8672 10.2752 4.71718C10.2609 4.56433 10.2353 4.41572 10.1982 4.27135C10.1612 4.12418 10.1099 3.98404 10.0444 3.851C9.98177 3.71513 9.90343 3.59768 9.80946 3.49861C9.71546 3.3967 9.60294 3.31602 9.47193 3.25659C9.3409 3.19431 9.18852 3.16318 9.01476 3.16318C8.84956 3.16318 8.70289 3.19431 8.5747 3.25659C8.44654 3.31885 8.33403 3.40235 8.23717 3.50709C8.1432 3.609 8.06344 3.72787 7.99793 3.86374C7.93525 3.99961 7.884 4.14115 7.84412 4.28835C7.80424 4.4327 7.77576 4.57989 7.75868 4.72991C7.74157 4.87711 7.73304 5.01581 7.73304 5.14602C7.73304 5.27622 7.74157 5.41635 7.75868 5.56637C7.77576 5.71357 7.80424 5.86074 7.84412 6.00794C7.884 6.15513 7.93525 6.29665 7.99793 6.43252C8.06344 6.56557 8.1432 6.68446 8.23717 6.7892C8.33403 6.89109 8.44654 6.97318 8.5747 7.03546C8.70289 7.09772 8.84956 7.12887 9.01476 7.12887C9.18567 7.12887 9.33663 7.09913 9.46764 7.0397C9.59867 6.97744 9.71117 6.89535 9.80517 6.79344C9.90201 6.69152 9.98177 6.57407 10.0444 6.44102C10.1071 6.30798 10.1569 6.16787 10.194 6.02068C10.2339 5.87348 10.2609 5.72487 10.2752 5.57485C10.2922 5.42483 10.3008 5.28189 10.3008 5.14602ZM17.1367 0.560418C17.0142 0.602879 16.9131 0.660905 16.8334 0.734503C16.7565 0.808099 16.6952 0.888771 16.6497 0.976521C16.6041 1.06427 16.5713 1.15626 16.5514 1.25251C16.5315 1.34592 16.5186 1.43508 16.5129 1.52C16.5072 1.60492 16.5058 1.68134 16.5087 1.74928C16.5144 1.81721 16.5186 1.86816 16.5215 1.90213C16.5158 1.82854 16.5044 1.74786 16.4873 1.66011C16.4702 1.57236 16.4446 1.4832 16.4104 1.39262C16.3762 1.30204 16.3335 1.21429 16.2822 1.12937C16.231 1.04446 16.1669 0.969445 16.09 0.90434C16.0159 0.839236 15.9276 0.786868 15.8251 0.74724C15.7254 0.707612 15.61 0.687797 15.479 0.687797C15.2768 0.687797 15.1144 0.734503 14.992 0.827912C14.8695 0.921323 14.7755 1.05578 14.71 1.23127C14.6444 1.40394 14.6003 1.61482 14.5775 1.86392C14.5547 2.11018 14.5433 2.389 14.5433 2.70037H16.0387V3.26933H14.5433V7.60865H13.095V3.26933H12.1978V2.70037H13.095C13.095 1.80023 13.2901 1.12796 13.6803 0.683551C14.0705 0.236314 14.6658 0.0126953 15.4662 0.0126953C15.7055 0.0126953 15.9162 0.0353401 16.0985 0.0806301C16.2837 0.123089 16.4432 0.175456 16.577 0.237729C16.7137 0.297173 16.8277 0.358031 16.9188 0.420303C17.01 0.479747 17.0826 0.526453 17.1367 0.560418ZM18.4441 1.52C18.4441 1.62756 18.4227 1.72946 18.38 1.82571C18.3401 1.92195 18.2846 2.00545 18.2134 2.07621C18.1422 2.14698 18.0582 2.20359 17.9613 2.24604C17.8645 2.28568 17.7619 2.3055 17.6537 2.3055C17.5454 2.3055 17.4429 2.28568 17.3461 2.24604C17.2521 2.20359 17.1695 2.14698 17.0983 2.07621C17.0271 2.00545 16.9701 1.92195 16.9274 1.82571C16.8875 1.72946 16.8676 1.62756 16.8676 1.52C16.8676 1.41244 16.8875 1.31195 16.9274 1.21854C16.9701 1.1223 17.0271 1.03879 17.0983 0.968027C17.1695 0.897262 17.2521 0.842066 17.3461 0.802438C17.4429 0.759977 17.5454 0.738749 17.6537 0.738749C17.7619 0.738749 17.8645 0.759977 17.9613 0.802438C18.0582 0.842066 18.1422 0.897262 18.2134 0.968027C18.2846 1.03879 18.3401 1.1223 18.38 1.21854C18.4227 1.31195 18.4441 1.41244 18.4441 1.52ZM18.38 7.60865H16.9316V2.70885H18.38V7.60865ZM25.2714 3.01033L24.541 3.31602C24.4839 3.13204 24.4071 2.96361 24.3102 2.81076C24.2162 2.65791 24.1022 2.5277 23.9683 2.42013C23.8373 2.30974 23.6879 2.22483 23.5199 2.16538C23.3517 2.10311 23.1679 2.07197 22.9686 2.07197C22.7549 2.07197 22.5585 2.10735 22.3791 2.17811C22.2023 2.24604 22.0429 2.34087 21.9005 2.46259C21.761 2.58431 21.6385 2.72585 21.5331 2.88718C21.4277 3.04852 21.3394 3.2212 21.2682 3.4052C21.197 3.58635 21.1443 3.77459 21.1101 3.96989C21.0759 4.16522 21.0588 4.35628 21.0588 4.54309C21.0588 4.84031 21.093 5.13611 21.1614 5.4305C21.2326 5.72487 21.3437 5.98954 21.4946 6.22448C21.6484 6.45941 21.8464 6.65048 22.0886 6.79768C22.3305 6.94204 22.6239 7.01422 22.9686 7.01422C23.1508 7.01422 23.3232 6.9845 23.4855 6.92507C23.6478 6.86278 23.7946 6.77928 23.9257 6.67454C24.0595 6.56698 24.1763 6.44102 24.2761 6.29665C24.3756 6.15231 24.4555 5.99661 24.5152 5.82961L25.2543 6.12259C25.1461 6.39148 24.998 6.62785 24.8101 6.83165C24.6222 7.03263 24.4071 7.19963 24.165 7.33267C23.9257 7.4657 23.668 7.56478 23.3917 7.62989C23.1183 7.69783 22.842 7.73178 22.5628 7.73178C22.2608 7.73178 21.9703 7.69498 21.6912 7.62139C21.4149 7.54781 21.1571 7.44307 20.9178 7.3072C20.6786 7.17133 20.4607 7.00715 20.2642 6.81468C20.0705 6.62218 19.9039 6.40848 19.7643 6.17352C19.6276 5.93859 19.5208 5.68383 19.4438 5.40926C19.3698 5.13187 19.3328 4.84313 19.3328 4.54309C19.3328 4.24304 19.3698 3.95574 19.4438 3.68117C19.5208 3.40378 19.6276 3.14761 19.7643 2.91265C19.9039 2.67489 20.0705 2.45976 20.2642 2.26728C20.4607 2.0748 20.6786 1.91062 20.9178 1.77475C21.1571 1.63888 21.4149 1.53415 21.6912 1.46056C21.9703 1.38696 22.2608 1.35016 22.5628 1.35016C22.8533 1.35016 23.1366 1.38413 23.4129 1.45206C23.692 1.52 23.9513 1.62332 24.1906 1.76202C24.4299 1.89789 24.6421 2.07055 24.8271 2.28002C25.015 2.48665 25.1633 2.73009 25.2714 3.01033ZM31.1376 7.60865H29.6934V7.02272C29.5226 7.25483 29.3161 7.4275 29.0739 7.54072C28.8346 7.65111 28.5713 7.70631 28.2836 7.70631C27.9076 7.70631 27.5716 7.63978 27.2754 7.50674C26.979 7.37372 26.7285 7.19254 26.5233 6.96326C26.3181 6.73115 26.1615 6.45941 26.0534 6.14804C25.9452 5.8367 25.8909 5.50268 25.8909 5.14602C25.8909 4.78935 25.9452 4.45535 26.0534 4.14398C26.1615 3.83261 26.3181 3.56228 26.5233 3.333C26.7285 3.10089 26.979 2.91833 27.2754 2.78528C27.5716 2.65224 27.9076 2.58572 28.2836 2.58572C28.4743 2.58572 28.6553 2.61402 28.8261 2.67065C29 2.72726 29.1579 2.80794 29.3003 2.91265C29.4456 3.01457 29.5725 3.13911 29.6808 3.28631C29.7917 3.43065 29.8787 3.592 29.9413 3.77035L30.5822 2.70461H31.1376V7.60865ZM29.6849 5.14602C29.6849 5.01863 29.6779 4.88418 29.6635 4.74265C29.6521 4.60113 29.6309 4.461 29.5994 4.32231C29.5681 4.18361 29.5239 4.05198 29.467 3.92744C29.413 3.80007 29.3417 3.68824 29.2533 3.592C29.168 3.49294 29.0641 3.41509 28.9416 3.35848C28.8191 3.30187 28.6767 3.27357 28.5144 3.27357C28.3518 3.27357 28.211 3.30328 28.0913 3.36274C27.9717 3.41935 27.8691 3.49717 27.7838 3.59626C27.6982 3.6925 27.6271 3.80431 27.57 3.93167C27.516 4.05907 27.4731 4.19211 27.4418 4.33081C27.4106 4.4695 27.3878 4.60961 27.3736 4.75115C27.3622 4.88985 27.3565 5.02148 27.3565 5.14602C27.3565 5.27057 27.3622 5.40361 27.3736 5.54513C27.3878 5.68668 27.4106 5.82678 27.4418 5.96548C27.4731 6.10418 27.516 6.23722 27.57 6.36459C27.6271 6.49198 27.6982 6.6052 27.7838 6.70426C27.8691 6.80052 27.9717 6.87835 28.0913 6.93781C28.211 6.99441 28.3518 7.02272 28.5144 7.02272C28.6625 7.02272 28.7935 6.993 28.9073 6.93355C29.0241 6.87128 29.1253 6.7892 29.2107 6.68728C29.299 6.58539 29.373 6.46933 29.4329 6.33913C29.4926 6.20891 29.5412 6.07446 29.5782 5.93576C29.6151 5.79707 29.6423 5.65978 29.6593 5.52391C29.6764 5.3852 29.6849 5.25924 29.6849 5.14602ZM36.9566 0.687797L36.1407 2.02951C36.1321 1.92195 36.1122 1.79881 36.0807 1.66011C36.0494 1.51858 35.9967 1.38554 35.9228 1.261C35.8515 1.13645 35.7519 1.03172 35.6238 0.946799C35.4984 0.859049 35.3374 0.815175 35.141 0.815175C34.9386 0.815175 34.7763 0.854803 34.6538 0.934062C34.5313 1.01332 34.4373 1.1322 34.3718 1.29072C34.3062 1.44923 34.2623 1.64596 34.2393 1.8809C34.2165 2.11584 34.2052 2.389 34.2052 2.70037H35.7005V3.26933H34.2052V7.60865H32.7568V3.26933H31.8597V2.70037H32.7568C32.7568 2.25031 32.8052 1.86392 32.9021 1.54123C32.999 1.21854 33.1455 0.953875 33.3422 0.74724C33.5386 0.537775 33.7852 0.384921 34.0813 0.288679C34.3804 0.189609 34.7293 0.140073 35.1281 0.140073C35.3674 0.140073 35.5809 0.157057 35.769 0.191024C35.9598 0.222162 36.1278 0.264621 36.273 0.318401C36.4211 0.369353 36.5508 0.427381 36.6619 0.492484C36.7728 0.557588 36.8713 0.622692 36.9566 0.687797ZM37.3882 5.28189C37.5647 5.32152 37.7415 5.35265 37.918 5.37531C38.0945 5.39794 38.2726 5.40926 38.452 5.40926C38.6401 5.40926 38.8138 5.39228 38.9733 5.35831C39.1356 5.32152 39.2751 5.26207 39.3919 5.17998C39.5116 5.09507 39.6057 4.98326 39.6739 4.84457C39.7424 4.70585 39.7765 4.5332 39.7765 4.32654C39.7765 4.15954 39.7538 4.0067 39.708 3.868C39.6625 3.72928 39.5943 3.61041 39.5031 3.51133C39.4147 3.41226 39.3051 3.33585 39.1741 3.28207C39.043 3.22544 38.8906 3.19713 38.7169 3.19713C38.5546 3.19713 38.4078 3.22687 38.2768 3.28631C38.1488 3.34574 38.0348 3.42641 37.9351 3.52833C37.8382 3.62739 37.7542 3.74346 37.6831 3.87648C37.6146 4.00952 37.5577 4.14822 37.512 4.29259C37.4665 4.43696 37.4337 4.58272 37.4138 4.72991C37.3939 4.87711 37.3838 5.01581 37.3838 5.14602C37.3838 5.16865 37.3838 5.19131 37.3838 5.21396C37.3838 5.23659 37.3853 5.25924 37.3882 5.28189ZM40.9473 4.31383C40.9473 4.51478 40.9144 4.69454 40.8488 4.85304C40.7834 5.00874 40.6937 5.14602 40.5798 5.26491C40.4686 5.38378 40.3391 5.48428 40.1908 5.56637C40.0427 5.64846 39.8848 5.71639 39.7166 5.77017C39.5486 5.82111 39.3749 5.85791 39.1955 5.88057C39.0188 5.9032 38.8466 5.91452 38.6784 5.91452C38.4649 5.91452 38.254 5.90037 38.0462 5.87207C37.8382 5.84094 37.6332 5.79281 37.4308 5.72772C37.4623 5.91452 37.512 6.09285 37.5805 6.2627C37.6487 6.4297 37.7399 6.57689 37.8539 6.70426C37.9679 6.82883 38.1074 6.92789 38.2726 7.00148C38.4406 7.07509 38.6386 7.11187 38.8665 7.11187C39.0174 7.11187 39.1612 7.08924 39.2979 7.04394C39.4346 6.99865 39.5599 6.93496 39.6739 6.85287C39.7879 6.77078 39.8876 6.67313 39.9729 6.55991C40.0613 6.44668 40.1326 6.32072 40.1867 6.18202L40.8103 6.41131C40.7165 6.63491 40.5868 6.82883 40.4216 6.993C40.2593 7.15435 40.0742 7.28878 39.8662 7.39635C39.6612 7.50109 39.4418 7.57894 39.2082 7.62989C38.9776 7.68083 38.7482 7.70631 38.5204 7.70631C38.1444 7.70631 37.7968 7.64404 37.4779 7.51948C37.1589 7.39211 36.884 7.2152 36.6534 6.98874C36.4226 6.76231 36.2417 6.49198 36.1107 6.17778C35.9797 5.86359 35.9143 5.51965 35.9143 5.14602C35.9143 4.77237 35.9797 4.42846 36.1107 4.11426C36.2417 3.80007 36.4226 3.52974 36.6534 3.30328C36.884 3.07683 37.1589 2.90135 37.4779 2.77678C37.7968 2.64941 38.1444 2.58572 38.5204 2.58572C38.7027 2.58572 38.8893 2.59846 39.08 2.62394C39.271 2.64941 39.456 2.69046 39.6354 2.74707C39.815 2.80085 39.9843 2.87161 40.144 2.95937C40.3035 3.04711 40.4415 3.15609 40.5583 3.28631C40.678 3.41368 40.772 3.56228 40.8403 3.73213C40.9116 3.90196 40.9473 4.09585 40.9473 4.31383Z" fill="#111111"/>
</svg>
