<svg width="24" height="24" viewBox="0 0 24 24" fill="none" xmlns="http://www.w3.org/2000/svg">
<path d="M17.2489 24C16.4739 24 15.7059 23.863 14.9549 23.59C11.6459 22.388 8.57394 20.43 6.07194 17.928C3.56994 15.426 1.61195 12.354 0.409948 9.045C0.0239484 7.982 -0.0904561 6.884 0.0709439 5.782C0.221944 4.75 0.621942 3.74899 1.22694 2.88499C1.83494 2.01799 2.64494 1.297 3.56994 0.798996C4.55594 0.268996 5.63294 0 6.76994 0C7.12294 0 7.42894 0.247002 7.50294 0.593002L8.67994 6.086C8.73295 6.335 8.65694 6.594 8.47694 6.774L6.46595 8.785C8.36295 12.558 11.4419 15.637 15.2149 17.534L17.2259 15.523C17.4059 15.343 17.6649 15.267 17.9139 15.32L23.4069 16.497C23.7529 16.571 23.9999 16.877 23.9999 17.23C23.9999 18.367 23.7309 19.444 23.2009 20.43C22.7029 21.355 21.9819 22.165 21.1149 22.773C20.2509 23.378 19.2499 23.777 18.2179 23.929C17.8939 23.976 17.5709 24 17.2489 24ZM6.16994 1.533C4.67094 1.698 3.33995 2.484 2.45595 3.746C1.46195 5.165 1.22994 6.909 1.81994 8.533C4.13094 14.895 9.10495 19.869 15.4669 22.18C17.0909 22.77 18.8349 22.538 20.2539 21.544C21.5159 20.66 22.3019 19.329 22.4669 17.83L17.9979 16.872L15.8979 18.973C15.6739 19.196 15.3349 19.256 15.0489 19.121C10.5869 17.025 6.97494 13.413 4.87894 8.952C4.74394 8.665 4.80395 8.326 5.02695 8.10201L7.12794 6.002L6.16994 1.533Z" fill="white"/>
</svg>
