<svg width="120" height="96" viewBox="0 0 120 96" fill="none" xmlns="http://www.w3.org/2000/svg">
<path d="M36 1.59229H84V47.7681H36V1.59229Z" fill="#FAE8D8"/>
<path d="M56 55.7295H64V87.575H56V55.7295Z" fill="#93573D"/>
<path d="M95.0304 56.5361L88 54.1373L81.4421 57.1209C79.1756 58.152 76.6104 58.6943 74 58.6943C71.3896 58.6943 68.8244 58.152 66.5579 57.1209L60 54.1373L53.4421 57.1209C51.1756 58.152 48.6104 58.6943 46 58.6943C43.3896 58.6943 40.8244 58.152 38.5579 57.1209L32 54.1373L24.9696 56.5361C24.2091 56.7956 23.3796 56.9008 22.5554 56.8422C21.7313 56.7836 20.9383 56.5632 20.2475 56.2005C19.5568 55.8379 18.9899 55.3444 18.5976 54.7644C18.2053 54.1844 18 53.536 18 52.8772V49.7584C18 49.2306 18.2634 48.7243 18.7322 48.351C19.2011 47.9778 19.837 47.7681 20.5 47.7681H99.5C100.163 47.7681 100.799 47.9778 101.268 48.351C101.737 48.7243 102 49.2306 102 49.7584V52.8772C102 53.536 101.795 54.1844 101.402 54.7644C101.01 55.3444 100.443 55.8379 99.7525 56.2005C99.0617 56.5632 98.2687 56.7836 97.4446 56.8422C96.6204 56.9008 95.7909 56.7956 95.0304 56.5361Z" fill="#F5CBAA"/>
<path d="M52.5 41.3989H67.5C68.163 41.3989 68.7989 41.6086 69.2678 41.9819C69.7366 42.3552 70 42.8615 70 43.3894V47.7683H50V43.3894C50 42.8615 50.2634 42.3552 50.7322 41.9819C51.2011 41.6086 51.837 41.3989 52.5 41.3989Z" fill="#F5CBAA"/>
<path d="M48.5 87.5747H71.5C72.163 87.5747 72.7989 87.7844 73.2678 88.1577C73.7366 88.5309 74 89.0372 74 89.5651V93.9438H46V89.5651C46 89.0372 46.2634 88.5309 46.7322 88.1577C47.2011 87.7844 47.837 87.5747 48.5 87.5747Z" fill="#F5CBAA"/>
<path d="M99.5 46.1758H86V1.59227C86 1.16997 85.7893 0.764973 85.4142 0.466365C85.0391 0.167756 84.5304 0 84 0H36C35.4696 0 34.9609 0.167756 34.5858 0.466365C34.2107 0.764973 34 1.16997 34 1.59227V9.55361H38V3.18454H58V39.8067H52.5C51.3069 39.8078 50.1631 40.1856 49.3195 40.8572C48.4759 41.5288 48.0013 42.4395 48 43.3893V46.1758H38V12.7382H34V46.1758H20.5C19.3069 46.1768 18.1631 46.5546 17.3195 47.2263C16.4759 47.8979 16.0013 48.8086 16 49.7584V52.8771C16 53.7994 16.2875 54.7072 16.8367 55.5192C17.3858 56.3312 18.1795 57.022 19.1466 57.5297C20.1137 58.0373 21.2239 58.346 22.3777 58.428C23.5315 58.51 24.6928 58.3627 25.7575 57.9994L31.8725 55.913L37.5656 58.503C40.0635 59.6333 42.8793 60.2433 45.7521 60.2767C48.6249 60.31 51.4618 59.7656 54 58.6938V85.9825H48.5C47.3069 85.9836 46.1631 86.3614 45.3195 87.033C44.4759 87.7046 44.0013 88.6153 44 89.5651V93.9439C44 94.3662 44.2107 94.7712 44.5858 95.0698C44.9609 95.3684 45.4696 95.5361 46 95.5361H74C74.5304 95.5361 75.0391 95.3684 75.4142 95.0698C75.7893 94.7712 76 94.3662 76 93.9439V89.5651C75.9987 88.6153 75.5241 87.7046 74.6805 87.033C73.8369 86.3614 72.6931 85.9836 71.5 85.9825H66V68.4676H62V85.9825H58V56.8809L60 55.971L65.5656 58.503C68.1364 59.6664 71.0428 60.2781 74 60.2781C76.9572 60.2781 79.8636 59.6664 82.4344 58.503L88.1275 55.913L94.2425 57.9994C95.3072 58.3627 96.4685 58.51 97.6223 58.428C98.7761 58.346 99.8863 58.0373 100.853 57.5297C101.82 57.022 102.614 56.3312 103.163 55.5192C103.713 54.7072 104 53.7994 104 52.8771V49.7584C103.999 48.8086 103.524 47.8979 102.681 47.2263C101.837 46.5546 100.693 46.1768 99.5 46.1758ZM71.5 89.1671C71.6326 89.1672 71.7597 89.2091 71.8534 89.2838C71.9471 89.3584 71.9999 89.4596 72 89.5651V92.3516H48V89.5651C48.0001 89.4596 48.0529 89.3584 48.1466 89.2838C48.2403 89.2091 48.3674 89.1672 48.5 89.1671H71.5ZM62 3.18454H82V46.1758H72V43.3893C71.9987 42.4395 71.5241 41.5288 70.6805 40.8572C69.8369 40.1856 68.6931 39.8078 67.5 39.8067H62V3.18454ZM62 42.9913H67.5C67.6326 42.9914 67.7597 43.0333 67.8534 43.108C67.9471 43.1826 67.9999 43.2838 68 43.3893V46.1758H62V42.9913ZM52 43.3893C52.0001 43.2838 52.0529 43.1826 52.1466 43.108C52.2403 43.0333 52.3674 42.9914 52.5 42.9913H58V46.1758H52V43.3893ZM100 52.8771C100 53.2724 99.8768 53.6614 99.6414 54.0094C99.406 54.3574 99.0659 54.6535 98.6514 54.8711C98.237 55.0886 97.7612 55.2209 97.2667 55.2561C96.7722 55.2912 96.2745 55.2281 95.8182 55.0725L88.7878 52.6736C88.5035 52.5766 88.1947 52.5334 87.8858 52.5475C87.5769 52.5616 87.2763 52.6325 87.0077 52.7547L80.4498 55.7382C78.4839 56.6279 76.2613 57.0956 74 57.0956C71.7387 57.0956 69.5161 56.6279 67.5502 55.7382L60.9923 52.7547C60.6901 52.6172 60.3481 52.5449 60 52.5449C59.6519 52.5449 59.3099 52.6172 59.0077 52.7547L52.4498 55.7382C50.4839 56.6279 48.2613 57.0956 46 57.0956C43.7387 57.0956 41.5161 56.6279 39.5502 55.7382L32.9923 52.7547C32.7237 52.6324 32.4231 52.5615 32.1142 52.5474C31.8053 52.5334 31.4965 52.5766 31.2122 52.6736L24.1818 55.0724C23.7255 55.2281 23.2278 55.2912 22.7333 55.256C22.2388 55.2209 21.763 55.0886 21.3486 54.871C20.9341 54.6535 20.594 54.3574 20.3586 54.0094C20.1232 53.6614 20 53.2724 20 52.8771V49.7584C20.0001 49.6529 20.0529 49.5517 20.1466 49.477C20.2403 49.4024 20.3674 49.3604 20.5 49.3603H99.5C99.6326 49.3604 99.7597 49.4024 99.8534 49.477C99.9472 49.5517 99.9999 49.6529 100 49.7584V52.8771Z" fill="black"/>
<path d="M62 55.7295H66V65.2832H62V55.7295Z" fill="black"/>
<path d="M108 73.2446H80V68.8658C80 68.6045 80.0647 68.3456 80.1903 68.1042C80.3159 67.8627 80.5001 67.6433 80.7322 67.4584C80.9644 67.2736 81.24 67.127 81.5433 67.027C81.8466 66.927 82.1717 66.8755 82.5 66.8755H105.5C105.828 66.8755 106.153 66.927 106.457 67.027C106.76 67.127 107.036 67.2736 107.268 67.4584C107.5 67.6433 107.684 67.8627 107.81 68.1042C107.935 68.3456 108 68.6045 108 68.8658V73.2446Z" fill="#93573D"/>
<path d="M118 54.1372H115C113.674 54.1372 112.402 53.7178 111.464 52.9713C110.527 52.2248 110 51.2123 110 50.1566V42.1953C110 41.1395 110.527 40.127 111.464 39.3805C112.402 38.634 113.674 38.2146 115 38.2146H118V54.1372Z" fill="#93573D"/>
<path d="M118 36.6226H115C113.144 36.6242 111.365 37.2119 110.053 38.2567C108.74 39.3014 108.002 40.718 108 42.1955V50.1568C108.002 51.6343 108.74 53.0509 110.053 54.0956C111.365 55.1404 113.144 55.7281 115 55.7297H116V58.4733L110.868 65.2833H82.5C81.3069 65.2844 80.1631 65.6622 79.3195 66.3338C78.4759 67.0055 78.0013 67.9161 78 68.8659V73.2447C78 73.667 78.2107 74.072 78.5858 74.3706C78.9609 74.6692 79.4696 74.8369 80 74.8369H94.8742L84.7203 92.3518H80V95.5364H86C86.382 95.5364 86.7561 95.4493 87.0779 95.2853C87.3997 95.1214 87.6558 94.8875 87.8159 94.6114L99.2797 74.8369H106.409L112.051 94.3021C112.153 94.653 112.401 94.966 112.755 95.1902C113.109 95.4143 113.548 95.5364 114 95.5364H120V92.3518H115.591L110 73.0635V68.8659C110 68.7329 109.991 68.6 109.972 68.4679H112C112.345 68.4679 112.685 68.3967 112.985 68.2612C113.286 68.1257 113.537 67.9305 113.715 67.6948L119.715 59.7334C119.902 59.486 120 59.2028 120 58.9143V38.2148C120 37.7925 119.789 37.3875 119.414 37.0889C119.039 36.7903 118.53 36.6226 118 36.6226ZM106 68.8659V71.6524H82V68.8659C82.0001 68.7604 82.0529 68.6592 82.1466 68.5846C82.2403 68.5099 82.3674 68.468 82.5 68.4679H105.5C105.633 68.468 105.76 68.5099 105.853 68.5846C105.947 68.6592 106 68.7604 106 68.8659ZM112 50.1568V42.1955C112.001 41.5623 112.317 40.9552 112.88 40.5074C113.442 40.0597 114.205 39.8078 115 39.8071H116V52.5452H115C114.205 52.5445 113.442 52.2926 112.88 51.8449C112.317 51.3971 112.001 50.79 112 50.1568Z" fill="black"/>
<path d="M14.5 66.8755H37.5C38.163 66.8755 38.7989 67.0852 39.2678 67.4584C39.7366 67.8317 40 68.3379 40 68.8658V73.2444H12V68.8658C12 68.3379 12.2634 67.8317 12.7322 67.4584C13.2011 67.0852 13.837 66.8755 14.5 66.8755Z" fill="#93573D"/>
<path d="M2 38.2146H5C5.65661 38.2146 6.30679 38.3176 6.91342 38.5176C7.52004 38.7176 8.07124 39.0109 8.53553 39.3805C8.99983 39.7501 9.36812 40.1889 9.6194 40.6719C9.87067 41.1548 10 41.6725 10 42.1952V50.1564C10 50.6791 9.87067 51.1967 9.6194 51.6797C9.36812 52.1626 8.99983 52.6014 8.53553 52.9711C8.07124 53.3407 7.52004 53.6339 6.91342 53.834C6.30679 54.034 5.65661 54.137 5 54.137H2V38.2146Z" fill="#93573D"/>
<path d="M37.5 65.2831H9.13233L4 58.473V55.7295H5C6.85588 55.7278 8.63515 55.1402 9.94745 54.0954C11.2598 53.0506 11.9979 51.6341 12 50.1566V42.1952C11.9979 40.7177 11.2598 39.3012 9.94745 38.2564C8.63515 37.2116 6.85588 36.624 5 36.6223H2C1.46957 36.6223 0.960859 36.7901 0.585786 37.0887C0.210714 37.3873 1.67025e-09 37.7923 1.67025e-09 38.2146V58.914C-1.48111e-05 59.2026 0.098497 59.4857 0.285 59.7332L6.285 67.6945C6.46268 67.9303 6.71404 68.1254 7.01458 68.2609C7.31513 68.3964 7.65462 68.4676 8 68.4676H10.0277C10.0092 68.5998 9.99999 68.7327 10 68.8657V73.0633L4.40893 92.3516H1.67025e-09V95.5361H6C6.45225 95.5361 6.89115 95.4141 7.24507 95.1899C7.59899 94.9658 7.84704 94.6527 7.94872 94.3019L13.5911 74.8367H20.7203L32.1841 94.6111C32.3442 94.8873 32.6003 95.1212 32.9221 95.2851C33.2439 95.449 33.618 95.5361 34 95.5361H40V92.3516H35.2797L25.1258 74.8367H40C40.5304 74.8367 41.0391 74.6689 41.4142 74.3703C41.7893 74.0717 42 73.6667 42 73.2444V68.8657C41.9987 67.9158 41.5241 67.0052 40.6805 66.3336C39.8369 65.6619 38.6931 65.2841 37.5 65.2831ZM4 39.8068H5C5.79537 39.8076 6.55791 40.0594 7.12032 40.5072C7.68273 40.9549 7.99909 41.562 8 42.1952V50.1566C7.99909 50.7898 7.68273 51.3969 7.12032 51.8446C6.55791 52.2924 5.79537 52.5442 5 52.545H4V39.8068ZM38 71.6522H14V68.8657C14.0001 68.7601 14.0529 68.659 14.1466 68.5843C14.2403 68.5097 14.3674 68.4677 14.5 68.4676H37.5C37.6326 68.4677 37.7597 68.5097 37.8534 68.5843C37.9471 68.659 37.9999 68.7601 38 68.8657V71.6522Z" fill="black"/>
</svg>
