<svg width="163" height="110" viewBox="0 0 163 110" fill="none" xmlns="http://www.w3.org/2000/svg">
<path d="M40.4456 38.2368C31.8538 38.2368 24.8892 45.0843 24.8892 53.5317H56.002C56.002 45.0843 49.0374 38.2368 40.4456 38.2368Z" fill="#93573D"/>
<path d="M24.8894 53.5317C16.2976 53.5317 9.33301 60.3791 9.33301 68.8264H20.2225H40.4458C40.4458 60.3791 33.4812 53.5317 24.8894 53.5317Z" fill="#93573D"/>
<path d="M40.4463 68.8264H60.6696H71.5591C71.5591 60.3791 64.5945 53.5317 56.0027 53.5317C47.4109 53.5317 40.4463 60.3791 40.4463 68.8264Z" fill="#93573D"/>
<path d="M60.669 68.8263C57.1673 68.8263 53.9347 69.9642 51.3352 71.8852L50.4812 72.445C47.7712 70.1906 44.2726 68.8263 40.4457 68.8263C36.58 68.8263 33.0518 70.2196 30.331 72.5138C27.6117 70.2212 24.0866 68.8263 20.2224 68.8263C11.6306 68.8263 4.66602 75.6737 4.66602 84.1209H24.8893H32.6675H56.0021H76.2254C76.2254 75.6737 69.2608 68.8263 60.669 68.8263Z" fill="#93573D"/>
<path d="M42.0024 73.415H38.8911V76.474H42.0024V73.415Z" fill="#333333"/>
<path d="M49.7807 76.4736H46.6694V79.5326H49.7807V76.4736Z" fill="#333333"/>
<path d="M34.2236 76.4736H31.1123V79.5326H34.2236V76.4736Z" fill="#333333"/>
<path d="M42.0024 42.8253H38.8911V45.8842H42.0024V42.8253Z" fill="#333333"/>
<path d="M49.7807 45.8842H46.6694V48.9431H49.7807V45.8842Z" fill="#333333"/>
<path d="M34.2236 45.8842H31.1123V48.9431H34.2236V45.8842Z" fill="#333333"/>
<path d="M26.4458 58.1201H23.3345V61.179H26.4458V58.1201Z" fill="#333333"/>
<path d="M34.2236 61.1791H31.1123V64.238H34.2236V61.1791Z" fill="#333333"/>
<path d="M18.6679 61.1791H15.5566V64.238H18.6679V61.1791Z" fill="#333333"/>
<path d="M57.5586 58.1201H54.4473V61.179H57.5586V58.1201Z" fill="#333333"/>
<path d="M65.3364 61.1791H62.2251V64.238H65.3364V61.1791Z" fill="#333333"/>
<path d="M49.7807 61.1791H46.6694V64.238H49.7807V61.1791Z" fill="#333333"/>
<path d="M21.7792 73.415H18.668V76.474H21.7792V73.415Z" fill="#333333"/>
<path d="M14.0004 76.4736H10.8892V79.5326H14.0004V76.4736Z" fill="#333333"/>
<path d="M68.4477 76.4736H65.3364V79.5326H68.4477V76.4736Z" fill="#333333"/>
<path d="M62.2255 73.415H59.1143V76.474H62.2255V73.415Z" fill="#333333"/>
<path d="M96.4497 16.8242H76.2264V0H66.8925V16.8242H46.6692V26.0011H49.8474L50.4774 39.93C47.6555 37.9126 44.1957 36.7074 40.4466 36.7074C31.511 36.7074 24.1638 43.4799 23.4093 52.0756C14.6666 52.8174 7.7782 60.0411 7.7782 68.8264V70.3559H10.415C6.40613 73.1258 3.65575 77.5352 3.18906 82.5917H0V90.2391C0 92.7688 2.09389 94.8275 4.66692 94.8275H73.1151H76.2264H90.1602L93.2715 26.0011H96.4497V16.8242ZM70.0038 3.05895H73.1151V16.8242H70.0038V3.05895ZM40.4466 39.7664C47.6415 39.7664 53.5856 45.1287 54.3619 52.0022H26.5314C27.3077 45.1287 33.2518 39.7664 40.4466 39.7664ZM69.9183 67.2969H42.0878C42.8641 60.4235 48.8082 55.0611 56.0031 55.0611C63.1979 55.0611 69.142 60.4235 69.9183 67.2969ZM30.3428 70.5746C30.2416 70.5012 30.1405 70.4278 30.0379 70.3559H30.6383C30.5372 70.4262 30.4423 70.5027 30.3428 70.5746ZM40.4466 70.3559C47.6399 70.3559 53.5794 75.7198 54.3556 82.5917H26.5377C27.3139 75.7198 33.2534 70.3559 40.4466 70.3559ZM50.5412 70.5669C50.4447 70.4981 50.3514 70.4232 50.255 70.3559H50.8523C50.7481 70.4278 50.6439 70.4935 50.5412 70.5669ZM40.4466 61.8581C39.1726 59.1204 37.1798 56.7757 34.6986 55.0611H46.1963C43.7135 56.7757 41.7207 59.1204 40.4466 61.8581ZM10.975 67.2969C11.7513 60.4235 17.6954 55.0611 24.8902 55.0611C32.0851 55.0611 38.0292 60.4235 38.8054 67.2969H10.975ZM20.2233 70.3559C23.0141 70.3559 25.6867 71.1604 27.9626 72.6516C25.4347 75.3099 23.7655 78.7634 23.4139 82.5917H6.31434C7.09061 75.7198 13.03 70.3559 20.2233 70.3559ZM73.1151 91.7685H4.66692C3.80976 91.7685 3.11128 91.0833 3.11128 90.2391V85.6506H68.4482V82.5917H57.4794C57.1262 78.7649 55.4601 75.3144 52.9353 72.6562C55.2299 71.1543 57.8838 70.3559 60.67 70.3559C67.8633 70.3559 73.8027 75.7198 74.579 82.5917H71.5595V85.6506H77.782V90.2391C77.782 91.0833 77.0835 91.7685 76.2264 91.7685H73.1151ZM93.3384 22.9421H87.1159V26.0011H90.1571L87.1843 91.7685H80.6071C80.7813 91.2883 80.8933 90.7774 80.8933 90.2391V82.5917H77.7027C77.236 77.5352 74.4872 73.1258 70.4767 70.3559H73.1151V68.8264C73.1151 60.0411 66.2267 52.8174 57.484 52.0756C57.1822 48.6327 55.8273 45.4835 53.7287 42.9431L52.9618 26.0011H84.0046V22.9421H49.7805V19.8832H93.3384V22.9421Z" fill="black"/>
<path d="M85.5595 44.3549H82.4482V47.4138H85.5595V44.3549Z" fill="#333333"/>
<path d="M94.112 16.9924H118.397V86.1555H77.9098C77.0503 86.1555 76.2261 85.772 75.6184 85.0893C75.0107 84.4067 74.6693 83.4808 74.6693 82.5154V48.5253C72.7301 47.492 71.0917 45.8617 69.9444 43.8239C68.7972 41.7861 68.1883 39.4244 68.1884 37.0133C68.1884 37.0133 66.5682 16.9924 94.112 16.9924Z" fill="#93573D"/>
<path d="M92.4553 37.0133C92.4552 39.4244 93.0641 41.7861 94.2113 43.8239C95.3586 45.8617 96.997 47.492 98.9362 48.5253V82.5154C98.9362 83.4808 99.2776 84.4067 99.8853 85.0893C100.493 85.772 101.317 86.1555 102.177 86.1555H134.581C135.44 86.1555 136.265 85.772 136.872 85.0893C137.48 84.4067 137.821 83.4808 137.821 82.5154V48.5253C139.761 47.492 141.399 45.8617 142.546 43.8239C143.694 41.7861 144.302 39.4244 144.302 37.0133C144.302 37.0133 145.923 16.9924 118.379 16.9924C90.8351 16.9924 92.4553 37.0133 92.4553 37.0133Z" fill="#FAE8D8"/>
<path d="M88.8341 78.1876C97.0932 62.667 110.296 64.3148 110.296 64.3148V61.0278C110.294 60.3205 110.476 59.6281 110.82 59.0357C111.164 58.4434 111.655 57.9771 112.232 57.6943C117.351 55.2145 124.878 55.2145 124.878 55.2145C124.878 55.2145 132.404 55.2145 137.524 57.6943C138.101 57.9771 138.591 58.4434 138.935 59.0357C139.28 59.6281 139.462 60.3205 139.46 61.0278V64.3148C139.46 64.3148 152.663 62.667 160.922 78.1876C161.291 78.8833 161.442 79.6976 161.353 80.5012C161.263 81.3048 160.937 82.0519 160.427 82.624L158.902 84.3355C158.902 84.3355 164.923 96.3104 158.168 106.686C157.892 107.11 157.537 107.462 157.128 107.718C156.72 107.974 156.266 108.128 155.8 108.169C155.333 108.21 154.865 108.136 154.426 107.954C153.987 107.772 153.588 107.486 153.257 107.114L145.941 98.896L136.219 97.076H113.536L103.815 98.896L96.4992 107.114C96.1681 107.486 95.7693 107.772 95.3303 107.954C94.8913 108.136 94.4224 108.21 93.9559 108.169C93.4893 108.128 93.0362 107.974 92.6274 107.718C92.2187 107.462 91.8642 107.11 91.5881 106.686C84.8324 96.3104 90.8533 84.3355 90.8533 84.3355L89.3287 82.6228C88.8186 82.0508 88.493 81.304 88.4034 80.5006C88.3138 79.6972 88.4654 78.8832 88.8341 78.1876Z" fill="#F5CBAA"/>
<path d="M70.9955 23.8312C75.6664 18.0856 83.4439 15.1724 94.1304 15.1724H118.397C129.056 15.1755 136.827 18.0886 141.496 23.8309C146.191 29.6074 145.977 36.182 145.923 37.0832C145.905 39.6256 145.298 42.1189 144.161 44.3177C143.025 46.5164 141.398 48.3448 139.442 49.6228V56.9352C139.958 57.4477 140.37 58.0777 140.653 58.7832C140.936 59.4888 141.081 60.2538 141.08 61.0274V62.4516C143.287 62.5282 145.474 62.9463 147.579 63.6941C151.801 65.1831 157.785 68.7448 162.313 77.2537C162.868 78.2969 163.097 79.5187 162.963 80.7247C162.829 81.9308 162.339 83.0518 161.573 83.9097L160.867 84.7021C161.707 86.8128 162.311 89.0321 162.665 91.3095C163.606 97.4215 162.503 103.11 159.476 107.76C159.062 108.397 158.53 108.925 157.917 109.309C157.304 109.692 156.624 109.923 155.925 109.984C155.225 110.044 154.522 109.935 153.864 109.661C153.205 109.388 152.608 108.958 152.111 108.401L145.162 100.596L136.086 98.896H113.671L104.594 100.596L97.6451 108.401C97.1942 108.908 96.6587 109.31 96.0693 109.585C95.4799 109.859 94.8482 110 94.2102 110C94.0856 110 93.9606 109.995 93.8351 109.984C93.1348 109.924 92.4545 109.694 91.8408 109.31C91.2272 108.926 90.6949 108.397 90.2806 107.76C87.2528 103.11 86.149 97.4215 87.091 91.3095C87.2656 90.1827 87.5023 89.0693 87.7998 87.9755H77.91C76.6213 87.9739 75.3858 87.3981 74.4746 86.3745C73.5634 85.3508 73.0508 83.9629 73.0493 82.5153V49.6231C71.0928 48.345 69.4663 46.5166 68.3299 44.3178C67.1936 42.1191 66.5865 39.6258 66.5685 37.0834C66.5146 36.1822 66.2999 29.6076 70.9955 23.8312ZM142.682 37.0133C142.682 36.9583 142.685 36.9034 142.689 36.8486C142.694 36.7926 143.095 31.1975 139.103 26.2858C135.072 21.327 128.098 18.8125 118.379 18.8125C108.697 18.8125 101.74 21.3083 97.701 26.2293C93.7025 31.1019 94.053 36.6234 94.0692 36.8477C94.0737 36.9024 94.0759 36.9573 94.0759 37.0124C94.0814 39.0778 94.6056 41.0996 95.5884 42.8452C96.5712 44.5908 97.9726 45.9894 99.6315 46.8802C99.9084 47.0279 100.142 47.2607 100.306 47.5518C100.47 47.8428 100.557 48.1801 100.557 48.5244V64.3375C101.119 64.0886 101.662 63.8752 102.177 63.6932C104.282 62.9456 106.469 62.5279 108.676 62.4516V61.0274C108.673 59.9644 108.948 58.9237 109.466 58.0341C109.984 57.1446 110.723 56.4451 111.591 56.0222C116.955 53.4238 124.557 53.394 124.878 53.394C125.162 53.394 131.118 53.4186 136.201 55.2118V48.5253C136.201 48.181 136.288 47.8437 136.452 47.5527C136.616 47.2617 136.85 47.0288 137.127 46.8811C138.786 45.9904 140.187 44.5918 141.17 42.8462C142.153 41.1005 142.677 39.0788 142.682 37.0133ZM90.4744 81.3357L91.999 83.0483L104.371 96.9467L111.757 95.5639L108.841 66.0891C105.514 66.1714 96.3991 67.5183 90.2249 79.1213C90.0407 79.4688 89.9652 79.8755 90.0104 80.2767C90.0556 80.6779 90.2189 81.0507 90.4744 81.3357ZM137.84 64.2135V61.0283C137.842 60.6764 137.753 60.3315 137.583 60.036C137.412 59.7406 137.169 59.5077 136.882 59.3662C132.138 57.0672 124.95 57.0342 124.878 57.0342C124.807 57.0342 117.631 57.0608 112.874 59.3653C112.587 59.5068 112.344 59.7397 112.174 60.0351C112.003 60.3306 111.914 60.6755 111.916 61.0274V64.2126L114.987 95.2559H134.77L137.84 64.2135ZM159.531 79.1213C156.345 73.1348 152.044 69.1295 146.747 67.2168C144.86 66.5312 142.896 66.1519 140.914 66.0904L137.999 95.5639L145.384 96.9467L157.757 83.0483L159.281 81.3357C159.537 81.0507 159.7 80.6779 159.745 80.2766C159.79 79.8754 159.715 79.4687 159.531 79.1213ZM154.403 105.827C154.568 106.013 154.768 106.156 154.988 106.247C155.207 106.338 155.442 106.375 155.676 106.354C155.909 106.334 156.136 106.257 156.34 106.128C156.545 106 156.722 105.824 156.86 105.611C159.373 101.752 160.257 97.1881 159.49 92.045C159.254 90.4901 158.885 88.9645 158.387 87.4898L148.232 98.896L154.403 105.827ZM92.895 105.611C93.0331 105.824 93.2104 106 93.4149 106.128C93.6194 106.257 93.8461 106.334 94.0796 106.354C94.3131 106.375 94.5477 106.338 94.7675 106.247C94.9872 106.156 95.1868 106.013 95.3527 105.827L101.524 98.896L91.3702 87.4898C90.8721 88.9645 90.5026 90.4901 90.2668 92.045C89.4988 97.1881 90.3835 101.752 92.896 105.611H92.895ZM69.8012 36.8486C69.8057 36.9034 69.8079 36.9583 69.8079 37.0133C69.8133 39.0788 70.3375 41.1005 71.3203 42.8462C72.3031 44.5918 73.7045 45.9904 75.3634 46.8811C75.6403 47.0288 75.8742 47.2617 76.038 47.5527C76.2018 47.8437 76.2888 48.181 76.2888 48.5253V82.5153C76.2892 82.9978 76.4601 83.4605 76.7639 83.8017C77.0676 84.1429 77.4794 84.3348 77.909 84.3354H88.5619L88.1828 83.9097C87.4164 83.0518 86.9274 81.9307 86.7934 80.7247C86.6593 79.5186 86.8881 78.2969 87.4432 77.2537C90.4108 71.6767 94.0036 68.2254 97.316 66.0898V49.6231C95.3594 48.3451 93.7328 46.5167 92.5964 44.3179C91.46 42.1191 90.853 39.6258 90.8351 37.0834C90.7812 36.1822 90.5663 29.6076 95.2621 23.8312C96.9919 21.738 99.0611 20.0347 101.359 18.8125H94.1122C84.43 18.8125 77.4729 21.3083 73.4341 26.2293C69.4354 31.1028 69.786 36.6243 69.8022 36.8486H69.8012Z" fill="black"/>
</svg>
